<?xml version="1.0" encoding="UTF-8" standalone="no"?>
<!-- Creator: CorelDRAW -->

<svg
   xml:space="preserve"
   width="293.85687mm"
   height="172.8576mm"
   style="clip-rule:evenodd;fill-rule:evenodd;image-rendering:optimizeQuality;shape-rendering:geometricPrecision;text-rendering:geometricPrecision"
   viewBox="0 0 293.85688 172.85761"
   version="1.1"
   id="svg187"
   sodipodi:docname="cali.svg"
   inkscape:version="1.4 (1:1.4+202410151213+e7c3feb100)"
   xmlns:inkscape="http://www.inkscape.org/namespaces/inkscape"
   xmlns:sodipodi="http://sodipodi.sourceforge.net/DTD/sodipodi-0.dtd"
   xmlns="http://www.w3.org/2000/svg"
   xmlns:svg="http://www.w3.org/2000/svg"><sodipodi:namedview
   id="namedview187"
   pagecolor="#505050"
   bordercolor="#eeeeee"
   borderopacity="1"
   inkscape:showpageshadow="0"
   inkscape:pageopacity="0"
   inkscape:pagecheckerboard="0"
   inkscape:deskcolor="#505050"
   inkscape:document-units="mm"
   inkscape:zoom="1.0953399"
   inkscape:cx="606.661"
   inkscape:cy="441.41549"
   inkscape:window-width="1920"
   inkscape:window-height="1016"
   inkscape:window-x="0"
   inkscape:window-y="27"
   inkscape:window-maximized="1"
   inkscape:current-layer="fondo"
   showguides="false" />
 <defs
   id="defs1">
  <style
   type="text/css"
   id="style1">
   <![CDATA[
    .str3 {stroke:black;stroke-width:0.25}
    .str1 {stroke:#666666;stroke-width:0.25;stroke-linecap:round;stroke-linejoin:round}
    .str0 {stroke:#CCCCCC;stroke-width:2}
    .str4 {stroke:black;stroke-width:0.25;stroke-linecap:round;stroke-linejoin:round}
    .str2 {stroke:#0066CC;stroke-width:0.25;stroke-linecap:round;stroke-linejoin:round}
    .fil0 {fill:none}
    .fil9 {fill:black}
    .fil7 {fill:#0071BC}
    .fil5 {fill:#87872D}
    .fil2 {fill:#999933}
    .fil3 {fill:#ADAD3B}
    .fil1 {fill:#B2B2B2}
    .fil6 {fill:#C2C241}
    .fil4 {fill:#C2C242}
    .fil8 {fill:black;fill-rule:nonzero}
   ]]>
  </style>
 </defs>
 <g
   id="area-urbana"
   inkscape:groupmode="layer"
   style="display:inline"
   transform="translate(-10.329402,-11.8274)"
   inkscape:label="Fondo">
  <metadata
   id="CorelCorpID_0Corel-Layer" />
  
  <g
   id="fondo"
   inkscape:label="fondo"
   style="clip-rule:evenodd;display:inline;fill-rule:evenodd;image-rendering:optimizeQuality;shape-rendering:geometricPrecision;text-rendering:geometricPrecision"
   inkscape:groupmode="layer"
   transform="matrix(1.4475868,0,0,1.4475868,164.72763,5.6903249)">
  <metadata
   id="metadata1" />
  <polygon
   class="fil1 str1"
   points="34.3453,45.5779 33.849,43.9237 33.6745,42.6831 32.5993,43.6388 31.377,43.8501 30.6326,44.4107 30.3386,44.2454 30.3753,44.0063 29.6676,43.6204 29.153,44.4751 29.8606,44.9069 31.3218,47.324 31.3861,47.9121 32.9944,49.3365 32.636,49.9982 32.5533,50.6966 31.9467,50.7334 30.8072,51.9189 29.6952,52.5162 30.0077,56.5047 31.3586,58.5816 32.4338,57.2859 33.0863,56.9182 34.1063,57.5064 34.1615,58.4438 33.4447,59.1331 32.9208,60.6585 32.4982,63.2041 31.2392,66.8801 30.9359,68.3505 30.7704,68.5802 30.366,68.6171 29.732,68.1576 29.2816,68.0932 28.6935,67.5326 27.8664,67.6981 27.2782,68.0289 26.6534,68.0105 26.4328,68.6813 26.0835,68.9571 25.477,69.0306 24.7969,69.6279 23.9239,69.5361 23.299,69.8485 23.2806,70.694 23.8137,71.034 23.7126,71.4659 23.7401,73.1018 26.157,70.5378 28.4454,68.8468 29.0611,68.856 29.5941,69.0949 30.605,70.2988 29.3184,80.0125 29.6676,80.4996 30.559,80.3158 37.378,79.4796 37.2953,77.9356 37.4055,76.5204 40.4106,76.2631 42.699,69.9312 45.8419,60.3185 46.4025,60.291 46.6415,59.905 47.4961,60.1163 48.2405,58.3887 48.7551,57.8556 48.8287,57.4329 48.6173,57.1388 49.3524,56.5691 49.0676,56.1554 50.345,55.0802 48.7367,54.9884 47.9923,54.5473 47.1928,54.538 46.6322,54.2991 45.7776,53.858 42.6622,51.1286 43.1401,50.5772 42.2211,49.6215 41.3572,49.0792 40.9621,48.4543 39.5468,48.6014 39.0505,48.9965 37.8834,48.5463 37.0747,47.8662 36.1925,47.7835 35.7238,47.0667 35.5584,46.3774 35.7606,46.065 36.1832,45.8812 36.0914,45.2746 35.8708,44.9162 35.4848,44.6589 "
   id="polygon-au-19"
   style="fill:none;stroke:#ffffff;stroke-width:0.18;stroke-linecap:round;stroke-linejoin:round;stroke-opacity:1"
   name="Nro. 19" />
  <polygon
   class="fil1 str1"
   points="40.2085,103.245 38.683,104.825 39.2987,105.974 36.8909,107.683 37.1207,108.658 35.7146,110.689 33.6009,116.322 33.6377,116.929 33.9961,117.728 34.5383,118.234 34.5934,120.623 33.9042,121.937 34.5751,123.398 46.2831,122.498 48.0292,121.873 49.6282,121.092 51.4478,121.533 52.137,120.88 52.716,106.094 52.1737,102.886 52.5781,102.767 51.0986,101.26 49.9683,100.359 47.349,98.76 45.2262,97.8594 42.5519,96.6923 40.861,95.4792 40.089,94.5878 39.6387,94.45 38.9127,94.5511 38.2326,94.8727 38.1039,95.7181 38.7105,96.3339 37.3871,97.0507 36.9093,96.968 36.4774,96.5729 36.3579,97.2713 35.4757,96.8485 35.3102,97.3815 35.5675,98.1075 36.992,99.8812 "
   id="polygon-au-22"
   style="fill:none;stroke:#ffffff;stroke-width:0.18;stroke-linecap:round;stroke-linejoin:round;stroke-opacity:1"
   name="Nro. 22" />
  <polygon
   class="fil1 str1"
   points="67.622,47.3791 71.0224,47.6824 70.9028,49.162 71.2154,49.9339 72.5387,49.2171 72.5478,48.6932 74.1285,48.0868 74.1745,47.5537 75.7001,46.9196 78.6959,41.323 75.0475,40.8635 71.0683,40.9829 62.9536,40.1007 62.2286,37.9349 55.96,39.926 56.199,40.7808 56.7688,43.6204 55.9509,52.6357 59.9761,52.0293 60.6469,52.3693 61.6762,53.5823 61.6762,52.6173 62.3011,52.5346 62.6136,52.2406 62.6411,51.9649 63.6153,51.7076 63.652,51.1929 65.8668,50.5312 67.7967,49.7777 68.2286,49.2079 "
   id="polygon-au-8"
   style="fill:none;stroke:#ffffff;stroke-width:0.18;stroke-linecap:round;stroke-linejoin:round;stroke-opacity:1"
   name="Nro. 8" />
  <polygon
   class="fil1 str1"
   points="56.5573,84.4238 57.8623,84.5156 58.9008,84.874 58.9375,84.6259 59.1765,84.4513 59.829,84.5249 61.6119,85.4162 62.4758,84.7822 60.9777,82.5765 57.9634,79.2865 69.0374,69.1133 66.2068,66.2 67.1258,65.2168 64.8662,62.6356 54.1128,72.9363 53.5431,73.1018 53.6533,74.4159 53.2031,75.969 52.7712,78.6249 52.5046,83.6977 52.2748,84.3502 51.9992,84.9567 52.0268,85.5724 52.7896,85.6 53.0652,85.2876 52.8079,84.8005 53.1755,84.534 53.3133,84.1756 53.9015,83.8539 55.6292,83.8632 56.4288,84.0745 "
   id="polygon-au-16"
   style="fill:none;stroke:#ffffff;stroke-width:0.18;stroke-linecap:round;stroke-linejoin:round;stroke-opacity:1"
   name="Nro. 16" />
  <polygon
   class="fil1 str1"
   points="76.4628,20.8294 80.1388,32.2341 86.6544,30.1572 86.2409,28.6316 86.2409,26.3249 84.3018,24.0642 84.2467,22.3365 84.1731,21.8219 83.9709,21.4267 83.4012,21.0867 82.8682,20.8753 82.6017,20.6088 82.2708,20.0114 82.1055,19.4968 82.0044,17.5853 81.3151,16.3355 81.0945,15.5268 81.0118,13.6061 80.5799,12.2368 79.6884,11.0605 78.3652,10.0312 77.8688,9.9668 75.8379,8.8825 75.1762,8.2299 75.1211,4.9859 73.5037,4.9675 73.1637,5.1881 73.5588,6.0059 73.2463,6.4563 73.375,6.9618 73.0257,7.3018 72.6673,7.4764 71.7208,7.2558 71.3992,7.4397 71.9414,7.9359 71.9414,8.2024 71.2705,8.5516 71.1694,9.9668 68.2286,14.8283 67.7507,15.1868 67.1809,16.3263 67.1534,16.7491 68.0356,17.1166 69.0557,17.181 72.6582,18.3205 74.9556,19.0465 75.4886,19.3038 75.9206,19.7725 76.2514,20.3331 "
   id="polygon-au-6"
   style="fill:none;stroke:#ffffff;stroke-width:0.18;stroke-linecap:round;stroke-linejoin:round;stroke-opacity:1"
   name="Nro. 6" />
  <polygon
   class="fil1 str1"
   points="83.1072,69.5912 83.1806,70.3999 83.3828,70.9789 83.7136,71.5211 84.1915,72.0448 84.8991,72.4768 85.331,72.8812 85.3035,75.8036 86.0112,76.8237 86.6636,76.8145 91.5343,75.8495 91.3689,74.4067 91.4791,73.506 92.3154,72.9455 92.8117,72.1276 92.5544,71.0431 92.0948,70.3631 91.8835,68.2587 92.5728,67.5694 92.9036,66.3195 93.5469,65.4741 94.7232,64.6102 94.8335,61.1732 96.2487,58.361 96.1569,56.6058 94.9714,55.5674 94.6405,52.2957 90.9185,49.0241 86.8842,48.9414 85.9743,47.3515 85.956,42.8668 85.4321,42.8852 85.1013,43.7307 83.6769,44.42 82.8039,45.0816 82.0319,46.3958 80.4604,46.7174 80.4972,49.6398 82.2708,49.0425 85.5516,51.1654 92.3614,60.0888 92.2786,60.7137 91.8744,61.5408 87.5734,68.8928 83.3185,68.6906 "
   id="polygon-au-21"
   style="fill:none;stroke:#ffffff;stroke-width:0.18;stroke-linecap:round;stroke-linejoin:round;stroke-opacity:1"
   name="Nro. 21" />
  <polygon
   class="fil2 str1"
   points="55.5649,102.114 56.0795,102.261 56.6677,101.885 56.9434,101.306 57.3661,101.885 57.7245,101.297 59.149,102.611 58.9008,84.874 57.8623,84.5156 56.5573,84.4238 56.4288,84.0745 55.6292,83.8632 53.9015,83.8539 53.3133,84.1756 53.1755,84.534 52.8079,84.8005 53.0652,85.2876 52.7896,85.6 52.0268,85.5724 51.9992,84.9567 52.2748,84.3502 52.5046,83.6977 52.7712,78.6249 53.2031,75.969 53.6533,74.4159 53.5431,73.1018 52.4954,73.1018 42.699,69.9312 40.4106,76.2631 37.4055,76.5204 37.2953,77.9356 37.378,79.4796 39.0046,89.6804 40.0339,93.3839 39.6387,94.45 40.089,94.5878 40.861,95.4792 42.5519,96.6923 47.349,98.76 49.9683,100.359 51.0986,101.26 52.5781,102.767 53.4236,101.894 54.7286,101.526 "
   id="polygon-au-17"
   style="fill:none;stroke:#ffffff;stroke-width:0.18;stroke-linecap:round;stroke-linejoin:round;stroke-opacity:1"
   name="Nro. 17" />
  <polygon
   class="fil2 str1"
   points="43.7007,14.4975 42.6714,15.591 44.6288,16.4733 45.5294,17.1075 47.6983,21.05 49.0951,20.8936 49.8395,21.1969 49.5455,21.8402 49.5639,22.7225 48.5897,25.406 48.0107,25.8195 48.2129,27.4277 47.5972,28.1722 47.3859,28.9441 46.9171,29.863 46.6138,31.0302 45.9889,31.5724 46.0533,32.6385 44.7942,33.8975 44.3899,33.438 44.1969,32.8222 43.3147,32.5741 42.7357,32.2065 42.2762,32.2341 42.1475,32.3536 42.3773,32.5925 42.12,33.006 41.9178,33.3737 41.6697,34.0628 41.5318,34.6327 41.5043,34.8349 41.4858,35.1289 41.5134,35.3495 41.5594,35.5333 41.6238,35.7355 40.9896,36.829 40.6496,36.9118 39.9512,37.4907 40.6863,38.4464 39.9237,38.7865 38.8392,38.9979 37.9845,38.7865 37.2033,38.3913 37.1666,39.5492 36.2936,38.5843 35.9903,38.7222 36.3854,39.4941 35.1173,40.2569 34.7773,40.2109 34.4372,40.1833 34.1523,40.1742 33.7847,40.2018 33.4079,40.2936 33.169,40.3855 32.9577,40.4958 32.7371,40.6337 32.4062,40.8726 32.1489,41.1115 31.4596,42.1041 29.64,42.9404 29.5665,43.3539 29.6676,43.6204 30.3753,44.0063 30.3386,44.2454 30.6326,44.4107 31.377,43.8501 32.5993,43.6388 33.6745,42.6831 33.849,43.9237 34.3453,45.5779 35.4848,44.6589 35.8708,44.9162 36.0914,45.2746 36.1832,45.8812 37.1482,45.8352 37.5159,45.4675 37.6537,44.7691 37.2033,44.2269 37.4882,44.0523 38.5359,43.8043 38.6738,42.0581 39.5468,42.0856 40.5668,41.6721 41.2194,42.0765 41.7891,42.3154 42.3038,42.3705 42.8276,42.2695 43.3239,42.0949 43.8569,41.6905 44.2062,41.3597 44.6932,40.9186 46.6322,40.266 46.8895,40.1007 46.9999,39.8618 47.2388,38.4924 48.6173,37.3712 49.9774,37.3345 50.7861,36.1306 51.5029,35.7355 52.0359,35.3127 52.6792,34.3937 53.7544,34.3294 54.4528,34.5776 55.0687,34.2834 55.6384,33.7688 57.9451,29.0268 62.7882,22.3457 63.0822,21.5278 63.7715,21.0591 64.8283,20.8661 65.5819,20.3056 66.0506,20.2504 66.5285,19.8736 66.7399,19.5152 66.8317,19.1476 66.6019,18.7984 66.8134,18.3756 66.7123,17.0064 67.1534,16.7491 67.1809,16.3263 67.7507,15.1868 68.2286,14.8283 71.1694,9.9668 63.698,12.8617 62.9995,15.4441 55.96,12.9995 54.8756,12.8341 54.0577,12.5492 53.5155,12.1449 53.1663,11.7129 52.7068,11.134 52.0175,10.7296 50.7953,10.601 49.8672,10.3804 49.7293,16.7675 48.7643,16.1976 48.1854,16.0322 48.167,13.9829 46.0533,13.9736 45.7041,13.744 44.8953,13.7163 44.6197,14.1391 "
   id="polygon-au-2"
   style="fill:none;stroke:#ffffff;stroke-width:0.18;stroke-linecap:round;stroke-linejoin:round;stroke-opacity:1"
   name="Nro. 2" />
  <polygon
   class="fil2 str1"
   points="80.4604,46.7174 78.6225,47.5537 76.7476,46.6256 75.7001,46.9196 70.7559,56.5874 69.9655,57.7821 68.5411,59.2249 67.4291,60.1806 64.8662,62.6356 67.1258,65.2168 66.2068,66.2 69.0374,69.1133 72.8787,65.5568 73.8528,65.9611 75.2589,64.647 76.1044,64.4908 77.1888,63.8382 77.9699,63.8382 80.5983,57.4513 80.4972,49.6398 "
   id="polygon-au-13"
   style="fill:none;stroke:#ffffff;stroke-width:0.18;stroke-linecap:round;stroke-linejoin:round;stroke-opacity:1"
   name="Nro. 13" />
  <polygon
   class="fil2 str1"
   points="55.9509,52.6357 56.7688,43.6204 56.1503,40.7953 49.913,42.6555 51.4478,47.9304 50.4369,47.7926 48.7643,47.7835 47.0733,48.0408 45.4743,48.6932 44.0407,49.5571 43.1401,50.5772 42.6622,51.1286 45.7776,53.858 46.6322,54.2991 47.1928,54.538 47.9923,54.5473 48.7367,54.9884 50.345,55.0802 52.8447,53.3709 53.9475,52.9299 "
   id="polygon-au-9"
   style="fill:none;stroke:#ffffff;stroke-width:0.18;stroke-linecap:round;stroke-linejoin:round;stroke-opacity:1"
   name="Nro. 9" />
  <polygon
   class="fil2 str1"
   points="29.732,68.1576 30.366,68.6171 30.7704,68.5802 30.9359,68.3505 31.2392,66.8801 32.4982,63.2041 32.9208,60.6585 33.4447,59.1331 34.1615,58.4438 34.1063,57.5064 33.0863,56.9182 32.4338,57.2859 31.3586,58.5816 30.5682,57.3686 29.3092,58.1589 29.4379,59.9968 26.6534,59.9326 25.1094,59.2342 24.4661,60.585 22.2605,63.342 21.7092,69.389 23.3082,68.9938 23.299,69.8485 23.9239,69.5361 24.7969,69.6279 25.477,69.0306 26.0835,68.9571 26.4328,68.6813 26.6534,68.0105 27.2782,68.0289 27.8664,67.6981 28.6935,67.5326 29.2816,68.0932 "
   id="polygon-au-20"
   style="fill:none;stroke:#ffffff;stroke-width:0.18;stroke-linecap:round;stroke-linejoin:round;stroke-opacity:1"
   name="Nro. 20" />
  <polygon
   class="fil2 str1"
   points="80.1388,32.2341 76.4628,20.8294 76.2514,20.3331 75.9206,19.7725 75.4886,19.3038 74.9556,19.0465 72.6582,18.3205 70.5537,21.3716 66.2435,24.9097 67.4751,28.0434 65.2235,28.7879 68.2562,36.0204 "
   id="polygon-au-5"
   style="fill:none;stroke:#ffffff;stroke-width:0.18;stroke-linecap:round;stroke-linejoin:round;stroke-opacity:1"
   name="Nro. 5" />
  <polygon
   class="fil3 str1"
   points="80.2031,64.4908 79.3025,63.9669 77.9699,63.8382 77.1888,63.8382 76.1044,64.4908 75.2589,64.647 73.8528,65.9611 72.8787,65.5568 69.0374,69.1133 57.9634,79.2865 60.9777,82.5765 62.4758,84.7822 63.3028,84.7087 65.7566,82.788 66.9972,81.0142 69.552,75.8862 71.1694,74.4343 73.9907,72.486 74.5605,71.2362 78.3652,68.7089 80.249,68.1116 80.727,67.7072 81.0394,67.2017 81.2048,66.632 80.7085,65.906 80.7361,65.1432 "
   id="polygon-au-15"
   style="fill:none;stroke:#ffffff;stroke-width:0.18;stroke-linecap:round;stroke-linejoin:round;stroke-opacity:1"
   name="Nro. 15" />
  <polygon
   class="fil4 str1"
   points="37.6537,44.7691 37.5159,45.4675 37.1482,45.8352 36.1832,45.8812 35.7606,46.065 35.5584,46.3774 35.7238,47.0667 36.1925,47.7835 37.0747,47.8662 37.8834,48.5463 39.0505,48.9965 39.5468,48.6014 40.9621,48.4543 41.3572,49.0792 42.2211,49.6215 43.1401,50.5772 44.0407,49.5571 45.4743,48.6932 47.0733,48.0408 48.7643,47.7835 50.4369,47.7926 51.4478,47.9304 49.913,42.6555 56.1503,40.7953 55.96,39.926 54.8756,36.0846 54.8481,35.2667 54.4528,34.5776 53.7544,34.3294 52.6792,34.3937 52.0359,35.3127 51.5029,35.7355 50.7861,36.1306 49.9774,37.3345 48.6173,37.3712 47.2388,38.4924 46.9999,39.8618 46.8895,40.1007 46.6322,40.266 44.6932,40.9186 43.8569,41.6905 43.3239,42.0949 42.8276,42.2695 42.3038,42.3705 41.7891,42.3154 41.2194,42.0765 40.5668,41.6721 39.5468,42.0856 38.6738,42.0581 38.5359,43.8043 37.4882,44.0523 37.2033,44.2269 "
   id="polygon-au-3"
   style="fill:none;stroke:#ffffff;stroke-width:0.18;stroke-linecap:round;stroke-linejoin:round;stroke-opacity:1"
   name="Nro. 3" />
  <polygon
   class="fil3 str1"
   points="22.4167,38.0146 22.2054,38.5384 21.6816,38.7037 20.8913,38.2902 20.2847,38.9059 20.009,38.4464 19.5954,38.7406 19.3381,38.7037 19.2646,38.1524 19.0348,37.7664 19.1176,37.1414 18.4835,37.1323 17.8769,37.3805 17.1601,36.535 17.298,36.0295 16.9488,35.9284 16.1768,36.489 16.4525,36.921 15.9471,37.0863 15.1383,35.9744 14.4859,35.91 13.815,36.1673 12.0413,37.5551 11.4073,36.7647 11.1958,36.0204 10.2952,35.5333 9.3762,34.0077 8.9811,33.9159 8.586,33.5299 8.2918,33.098 7.9058,32.4363 7.2626,31.7194 6.2884,31.0302 4.9559,31.7654 5.6636,31.8388 6.2884,32.1146 6.9226,32.6385 7.189,33.4011 7.915,34.6143 7.9978,35.184 8.3378,35.5333 9.4866,35.6344 10.3503,36.875 11.3246,37.8584 10.9385,38.327 10.9753,38.6395 11.1958,38.9795 10.9937,40.266 11.5542,40.6244 12.3905,40.0363 13.1809,40.7715 13.815,41.1666 14.9821,42.9955 16.2871,43.0047 16.9212,42.7657 17.5829,43.0139 18.2078,42.9679 19.3197,43.4642 20.4133,43.0506 20.9648,43.1426 21.4977,43.6663 23.6757,43.7307 25.6424,44.3005 28.1146,44.4658 28.3902,44.6496 29.153,44.4751 29.6676,43.6204 29.5665,43.3539 29.64,42.9404 31.4596,42.1041 32.1489,41.1115 32.4062,40.8726 32.7371,40.6337 32.9577,40.4958 33.169,40.3855 33.4079,40.2936 33.7847,40.2018 34.1523,40.1742 34.4372,40.1833 34.7773,40.2109 35.1173,40.2569 36.3854,39.4941 35.9903,38.7222 36.2936,38.5843 36.2936,38.1248 33.8767,35.9284 33.4172,35.7262 31.8181,36.0388 31.9651,34.9727 31.7262,34.8349 30.9266,35.0187 30.6417,34.8807 29.9525,33.9526 29.5114,33.6769 28.8497,33.9526 28.3626,33.5758 27.554,33.5299 27.6367,35.1289 27.462,35.763 26.8647,36.6545 25.67,37.8124 25.5138,38.3453 25.9181,38.8048 25.6975,39.1081 23.5931,38.7314 23.3266,38.4741 22.8671,38.5475 "
   id="polygon-au-1"
   style="fill:none;stroke:#ffffff;stroke-width:0.18;stroke-linecap:round;stroke-linejoin:round;stroke-opacity:1"
   name="Nro. 1" />
  <polygon
   class="fil3 str1"
   points="29.2632,99.3115 30.3844,99.2563 31.2483,98.9622 32.1305,99.2838 33.123,100.111 33.6101,100.286 34.042,100.129 34.4372,99.486 35.0162,97.3264 35.3102,97.3815 35.4757,96.8485 36.3579,97.2713 36.4774,96.5729 36.9093,96.968 37.3871,97.0507 38.7105,96.3339 38.1039,95.7181 38.2326,94.8727 38.9127,94.5511 39.6387,94.45 40.0339,93.3839 39.0046,89.6804 37.378,79.4796 30.559,80.3158 29.6676,80.4996 29.4654,80.7569 26.6258,80.6651 26.6534,83.3577 25.3667,85.0027 26.7085,86.9142 26.8003,88.3846 27.3609,89.322 28.0226,90.8659 27.5171,93.3379 26.8923,94.11 26.7085,96.8945 27.9675,97.5746 28.3168,98.0341 28.4362,98.6958 28.7763,99.1369 "
   id="polygon-au-18"
   style="fill:none;stroke:#ffffff;stroke-width:0.18;stroke-linecap:round;stroke-linejoin:round;stroke-opacity:1"
   name="Nro. 18" />
  <polygon
   class="fil3 str1"
   points="69.0557,17.181 68.0356,17.1166 67.1534,16.7491 66.7123,17.0064 66.8134,18.3756 66.6019,18.7984 66.8317,19.1476 66.7399,19.5152 66.5285,19.8736 66.0506,20.2504 65.5819,20.3056 64.8283,20.8661 63.7715,21.0591 63.0822,21.5278 62.7882,22.3457 57.9451,29.0268 55.6384,33.7688 55.0687,34.2834 54.4528,34.5776 54.8481,35.2667 54.8756,36.0846 55.96,39.926 62.2276,37.9318 68.2562,36.0204 65.2235,28.7879 67.4751,28.0434 66.2435,24.9097 70.5537,21.3716 72.6582,18.3205 "
   id="polygon-au-4"
   style="fill:none;stroke:#ffffff;stroke-width:0.18;stroke-linecap:round;stroke-linejoin:round;stroke-opacity:1"
   name="Nro. 4" />
  <polygon
   class="fil3 str1"
   points="54.1128,72.9363 64.8651,62.6344 67.4291,60.1806 65.2971,57.9292 64.0196,58.4345 63.8359,58.1772 64.0196,57.8097 62.1816,55.7236 62.54,55.1446 61.2994,54.5289 61.6762,53.5823 60.6469,52.3693 59.9761,52.0293 55.9509,52.6357 53.5431,73.1018 "
   id="polygon-au-11"
   style="fill:none;stroke:#ffffff;stroke-width:0.18;stroke-linecap:round;stroke-linejoin:round;stroke-opacity:1"
   name="Nro. 11" />
  <polygon
   class="fil4 str1"
   points="50.345,55.0802 49.0676,56.1554 49.3524,56.5691 48.6173,57.1388 48.8287,57.4329 48.7551,57.8556 48.2405,58.3887 47.4961,60.1163 46.6415,59.905 46.4025,60.291 45.8419,60.3185 42.699,69.9312 52.4954,73.1018 53.5431,73.1018 55.9509,52.6357 53.9475,52.9299 52.8447,53.3709 "
   style="fill:none;stroke:#ffffff;stroke-width:0.18;stroke-linecap:round;stroke-linejoin:round;stroke-opacity:1"
   name="Nro. 10"
   id="polygon-au-10" />
  <polygon
   class="fil4 str1"
   points="85.6343,38.5659 85.6895,37.0496 85.0279,35.3403 85.1564,34.4948 86.5902,32.9417 87.0037,32.1421 87.0037,30.9935 86.6544,30.1572 80.1388,32.2341 68.2562,36.0204 62.2286,37.9349 62.9536,40.1007 71.0683,40.9829 75.0475,40.8635 78.6959,41.323 75.7001,46.9196 76.7476,46.6256 78.6225,47.5537 80.4604,46.7174 82.0319,46.3958 82.8039,45.0816 83.6769,44.42 85.1013,43.7307 85.4321,42.8852 85.956,42.8668 86.2225,40.4866 "
   id="polygon-au-7"
   style="fill:none;stroke:#ffffff;stroke-width:0.18;stroke-linecap:round;stroke-linejoin:round;stroke-opacity:1"
   name="Nro. 7" />
  <polygon
   class="fil4 str1"
   points="85.5516,51.1654 82.2708,49.0425 80.4972,49.6398 80.5983,57.4513 77.9699,63.8382 79.3025,63.9669 80.2031,64.4908 80.7361,65.1432 80.7085,65.906 81.2048,66.632 82.0319,66.6688 82.7946,67.1099 83.3001,67.7165 83.3185,68.6906 87.5734,68.8928 91.8744,61.5408 92.2786,60.7137 92.3614,60.0888 "
   id="polygon-au-14"
   style="fill:none;stroke:#ffffff;stroke-width:0.18;stroke-linecap:round;stroke-linejoin:round;stroke-opacity:1"
   name="Nro. 14" />
  <polygon
   class="fil4 str1"
   points="68.5411,59.2249 69.9655,57.7821 70.7559,56.5874 75.7001,46.9196 74.1745,47.5537 74.1285,48.0868 72.5478,48.6932 72.5387,49.2171 71.2154,49.9339 70.9028,49.162 71.0224,47.6824 67.622,47.3791 68.2286,49.2079 67.7967,49.7777 65.8668,50.5312 63.652,51.1929 63.6153,51.7076 62.6411,51.9649 62.6136,52.2406 62.3011,52.5346 61.6762,52.6173 61.6762,53.5823 61.2994,54.5289 62.54,55.1446 62.1816,55.7236 64.0196,57.8097 63.8359,58.1772 64.0196,58.4345 65.2971,57.9292 67.4291,60.1806 "
   id="polygon-au-12"
   style="fill:none;stroke:#ffffff;stroke-width:0.18;stroke-linecap:round;stroke-linejoin:round;stroke-opacity:1"
   name="Nro. 12" />
 <path
   style="font-size:2.19331px;font-family:Lato;-inkscape-font-specification:Lato;fill:#ffffff;stroke-width:0.138161;stroke-linecap:round;stroke-linejoin:round;paint-order:stroke fill markers"
   d="m -27.872776,53.642551 h -0.164498 q -0.02851,0 -0.04606,-0.01426 -0.01755,-0.01426 -0.02632,-0.03619 l -0.146952,-0.379442 h -0.705149 l -0.146952,0.379442 q -0.0066,0.01974 -0.02522,0.03509 -0.01864,0.01535 -0.04606,0.01535 h -0.164499 l 0.628384,-1.571506 h 0.214944 z m -1.029759,-0.58342 h 0.586711 l -0.246748,-0.63935 q -0.01206,-0.02851 -0.02413,-0.0658 -0.01097,-0.03729 -0.02303,-0.08006 -0.01097,0.04277 -0.02303,0.08115 -0.01097,0.03729 -0.02303,0.0658 z m 1.448678,-0.07238 v 0.655799 h -0.211655 v -1.571506 h 0.444145 q 0.149145,0 0.257714,0.03071 0.108569,0.02961 0.178755,0.08664 0.07128,0.05703 0.105279,0.138178 0.034,0.08006 0.034,0.179852 0,0.08335 -0.02632,0.155725 -0.02632,0.07238 -0.07677,0.130502 -0.04935,0.05703 -0.121729,0.0987 -0.07128,0.04058 -0.162305,0.06032 0.04167,0.02632 0.07019,0.0669 l 0.458402,0.623996 h -0.188625 q -0.05812,0 -0.08554,-0.04496 l -0.407956,-0.561488 q -0.01864,-0.02632 -0.04058,-0.03729 -0.02084,-0.01206 -0.0658,-0.01206 z m 0,-0.154629 h 0.223717 q 0.09212,0 0.162305,-0.02193 0.07128,-0.02303 0.118439,-0.06361 0.04825,-0.04167 0.07238,-0.0987 0.02413,-0.05703 0.02413,-0.126115 0,-0.140372 -0.09212,-0.211654 -0.09212,-0.07128 -0.276357,-0.07128 h -0.23249 z m 2.130798,-0.761078 v 0.173271 h -0.755595 v 0.522008 h 0.611934 v 0.166692 h -0.611934 v 0.536264 h 0.756692 l -0.0011,0.173271 h -0.968346 v -1.571506 z m 1.575892,1.571506 h -0.164498 q -0.02851,0 -0.04606,-0.01426 -0.01755,-0.01426 -0.02632,-0.03619 l -0.146952,-0.379442 h -0.705149 l -0.146952,0.379442 q -0.0066,0.01974 -0.02522,0.03509 -0.01864,0.01535 -0.04606,0.01535 h -0.164499 l 0.628384,-1.571506 h 0.214944 z m -1.029759,-0.58342 h 0.586711 l -0.246748,-0.63935 q -0.01206,-0.02851 -0.02413,-0.0658 -0.01097,-0.03729 -0.02303,-0.08006 -0.01097,0.04277 -0.02303,0.08115 -0.01097,0.03729 -0.02303,0.0658 z m 2.33148,0.414536 q 0.0976,0 0.174368,-0.0329 0.07677,-0.0329 0.129406,-0.09212 0.05374,-0.05922 0.08115,-0.141469 0.02851,-0.08225 0.02851,-0.180948 v -0.955186 h 0.211654 v 0.955186 q 0,0.135986 -0.04387,0.252231 -0.04277,0.116245 -0.123922,0.201784 -0.08006,0.08444 -0.196301,0.132696 -0.116245,0.04825 -0.261004,0.04825 -0.144758,0 -0.261004,-0.04825 -0.116245,-0.04825 -0.197398,-0.132696 -0.08115,-0.08554 -0.125018,-0.201784 -0.04277,-0.116245 -0.04277,-0.252231 v -0.955186 h 0.211655 v 0.95409 q 0,0.0987 0.02742,0.180948 0.02851,0.08225 0.08115,0.141468 0.05374,0.05922 0.130502,0.09322 0.07786,0.0329 0.175465,0.0329 z m 1.218381,-0.486915 v 0.655799 h -0.211655 v -1.571506 h 0.444146 q 0.149145,0 0.257713,0.03071 0.108569,0.02961 0.178755,0.08664 0.07128,0.05703 0.105279,0.138178 0.034,0.08006 0.034,0.179852 0,0.08335 -0.02632,0.155725 -0.02632,0.07238 -0.07677,0.130502 -0.04935,0.05703 -0.121729,0.0987 -0.07128,0.04058 -0.162305,0.06032 0.04167,0.02632 0.07019,0.0669 l 0.458402,0.623996 h -0.188625 q -0.05812,0 -0.08554,-0.04496 l -0.407956,-0.561488 q -0.01864,-0.02632 -0.04058,-0.03729 -0.02084,-0.01206 -0.0658,-0.01206 z m 0,-0.154629 h 0.223717 q 0.09212,0 0.162305,-0.02193 0.07128,-0.02303 0.118439,-0.06361 0.04825,-0.04167 0.07238,-0.0987 0.02413,-0.05703 0.02413,-0.126115 0,-0.140372 -0.09212,-0.211654 -0.09212,-0.07128 -0.276357,-0.07128 h -0.232491 z m 1.162452,0.810428 v -1.571506 h 0.501171 q 0.144759,0 0.248941,0.02851 0.105279,0.02851 0.172175,0.08115 0.06799,0.05264 0.0998,0.129406 0.0318,0.07567 0.0318,0.171078 0,0.05812 -0.01864,0.111859 -0.01755,0.05374 -0.05374,0.0998 -0.03619,0.04606 -0.09212,0.08225 -0.05483,0.03619 -0.129405,0.05922 0.172175,0.034 0.259907,0.123922 0.08773,0.08993 0.08773,0.236877 0,0.0998 -0.03729,0.182045 -0.03619,0.08225 -0.107472,0.141468 -0.07019,0.05922 -0.173271,0.09212 -0.103086,0.0318 -0.234684,0.0318 z m 0.211655,-0.716115 v 0.547231 h 0.339963 q 0.09102,0 0.156821,-0.02084 0.0658,-0.02084 0.107472,-0.05812 0.04277,-0.03838 0.06251,-0.08992 0.01974,-0.05264 0.01974,-0.115149 0,-0.121729 -0.08664,-0.191915 -0.08664,-0.07128 -0.259907,-0.07128 z m 0,-0.151339 h 0.280743 q 0.08993,0 0.155725,-0.01974 0.0669,-0.01974 0.109666,-0.05483 0.04387,-0.03509 0.0647,-0.08444 0.02084,-0.05045 0.02084,-0.109665 0,-0.139275 -0.08335,-0.202881 -0.08335,-0.0647 -0.258811,-0.0647 h -0.289516 z m 2.461988,0.867454 h -0.164498 q -0.02851,0 -0.04606,-0.01426 -0.01755,-0.01426 -0.02632,-0.03619 l -0.146952,-0.379442 h -0.705149 l -0.146952,0.379442 q -0.0066,0.01974 -0.02522,0.03509 -0.01864,0.01535 -0.04606,0.01535 h -0.164498 l 0.628383,-1.571506 h 0.214945 z m -1.029759,-0.58342 h 0.586711 l -0.246748,-0.63935 q -0.01206,-0.02851 -0.02413,-0.0658 -0.01097,-0.03729 -0.02303,-0.08006 -0.01097,0.04277 -0.02303,0.08115 -0.01097,0.03729 -0.02303,0.0658 z m 1.346689,-0.988086 q 0.01426,0 0.02413,0.0022 0.0099,0.0011 0.01755,0.0055 0.0077,0.0033 0.01535,0.01097 0.0077,0.0066 0.01645,0.01755 l 0.909127,1.183291 q -0.0022,-0.02851 -0.0044,-0.05483 -0.0011,-0.02742 -0.0011,-0.05154 v -1.113105 h 0.186432 v 1.571506 h -0.106376 q -0.02522,0 -0.04277,-0.0088 -0.01645,-0.0088 -0.0329,-0.02961 l -0.909127,-1.18329 q 0.0022,0.02742 0.0033,0.05374 0.0011,0.02632 0.0011,0.04825 v 1.119684 h -0.186432 v -1.571506 h 0.109666 z m 2.842526,1.571506 h -0.164498 q -0.02851,0 -0.04606,-0.01426 -0.01755,-0.01426 -0.02632,-0.03619 l -0.146952,-0.379442 h -0.705149 l -0.146952,0.379442 q -0.0066,0.01974 -0.02522,0.03509 -0.01864,0.01535 -0.04606,0.01535 h -0.164499 l 0.628384,-1.571506 h 0.214944 z m -1.029759,-0.58342 h 0.586711 l -0.246748,-0.63935 q -0.01206,-0.02851 -0.02413,-0.0658 -0.01097,-0.03729 -0.02303,-0.08006 -0.01097,0.04277 -0.02303,0.08115 -0.01097,0.03729 -0.02303,0.0658 z"
   id="text20"
   aria-label="AREA URBANA" /><path
   style="font-size:2.19331px;font-family:Lato;-inkscape-font-specification:Lato;fill:#ffffff;stroke-width:0.138161;stroke-linecap:round;stroke-linejoin:round;paint-order:stroke fill markers"
   d="m 70.745091,93.110489 h -0.164498 q -0.02851,0 -0.04606,-0.01426 -0.01755,-0.01426 -0.02632,-0.03619 L 70.361262,92.6806 h -0.70515 l -0.146951,0.379443 q -0.0066,0.01974 -0.02522,0.03509 -0.01864,0.01535 -0.04606,0.01535 H 69.27338 l 0.628383,-1.571507 h 0.214945 z m -1.029759,-0.583421 h 0.58671 l -0.246747,-0.639349 q -0.01206,-0.02851 -0.02413,-0.0658 -0.01097,-0.03729 -0.02303,-0.08006 -0.01097,0.04277 -0.02303,0.08115 -0.01097,0.03729 -0.02303,0.0658 z m 1.448677,-0.07238 v 0.6558 H 70.952355 V 91.538982 H 71.3965 q 0.149145,0 0.257714,0.03071 0.108569,0.02961 0.178755,0.08664 0.07128,0.05703 0.105279,0.138179 0.034,0.08006 0.034,0.179851 0,0.08335 -0.02632,0.155725 -0.02632,0.07238 -0.07677,0.130502 -0.04935,0.05703 -0.121728,0.0987 -0.07128,0.04058 -0.162305,0.06032 0.04167,0.02632 0.07019,0.0669 l 0.458401,0.623997 h -0.188624 q -0.05812,0 -0.08554,-0.04496 l -0.407956,-0.561487 q -0.01864,-0.02632 -0.04058,-0.03729 -0.02084,-0.01206 -0.0658,-0.01206 z m 0,-0.154628 h 0.223718 q 0.09212,0 0.162305,-0.02193 0.07128,-0.02303 0.118438,-0.06361 0.04825,-0.04167 0.07238,-0.0987 0.02413,-0.05703 0.02413,-0.126116 0,-0.140371 -0.09212,-0.211654 -0.09212,-0.07128 -0.276357,-0.07128 h -0.232491 z m 2.130799,-0.761079 v 0.173272 h -0.755595 v 0.522008 h 0.611933 v 0.166691 h -0.611933 v 0.536264 h 0.756692 l -0.0011,0.173272 h -0.968346 v -1.571507 z m 1.575892,1.571507 h -0.164498 q -0.02851,0 -0.04606,-0.01426 -0.01755,-0.01426 -0.02632,-0.03619 L 74.486871,92.6806 h -0.70515 l -0.146951,0.379443 q -0.0066,0.01974 -0.02522,0.03509 -0.01864,0.01535 -0.04606,0.01535 h -0.164498 l 0.628383,-1.571507 h 0.214944 z m -1.029759,-0.583421 h 0.58671 l -0.246747,-0.639349 q -0.01206,-0.02851 -0.02413,-0.0658 -0.01097,-0.03729 -0.02303,-0.08006 -0.01097,0.04277 -0.02303,0.08115 -0.01097,0.03729 -0.02303,0.0658 z m 2.33148,0.414536 q 0.0976,0 0.174368,-0.0329 0.07677,-0.0329 0.129405,-0.09212 0.05374,-0.05922 0.08115,-0.141468 0.02851,-0.08225 0.02851,-0.180948 v -0.955187 h 0.211654 v 0.955187 q 0,0.135985 -0.04387,0.25223 -0.04277,0.116246 -0.123922,0.201785 -0.08006,0.08444 -0.196301,0.132695 -0.116246,0.04825 -0.261004,0.04825 -0.144759,0 -0.261004,-0.04825 -0.116246,-0.04825 -0.197398,-0.132695 -0.08115,-0.08554 -0.125019,-0.201785 -0.04277,-0.116245 -0.04277,-0.25223 v -0.955187 h 0.211654 v 0.95409 q 0,0.0987 0.02742,0.180948 0.02851,0.08225 0.08115,0.141469 0.05374,0.05922 0.130502,0.09322 0.07786,0.0329 0.175465,0.0329 z m 1.21838,-0.486915 v 0.6558 h -0.211654 v -1.571507 h 0.444145 q 0.149145,0 0.257714,0.03071 0.108569,0.02961 0.178755,0.08664 0.07128,0.05703 0.105279,0.138179 0.034,0.08006 0.034,0.179851 0,0.08335 -0.02632,0.155725 -0.02632,0.07238 -0.07677,0.130502 -0.04935,0.05703 -0.121728,0.0987 -0.07128,0.04058 -0.162305,0.06032 0.04167,0.02632 0.07019,0.0669 l 0.458401,0.623997 H 78.15188 q -0.05812,0 -0.08554,-0.04496 l -0.407956,-0.561487 q -0.01864,-0.02632 -0.04058,-0.03729 -0.02084,-0.01206 -0.0658,-0.01206 z m 0,-0.154628 h 0.223718 q 0.09212,0 0.162305,-0.02193 0.07128,-0.02303 0.118438,-0.06361 0.04825,-0.04167 0.07238,-0.0987 0.02413,-0.05703 0.02413,-0.126116 0,-0.140371 -0.09212,-0.211654 -0.09212,-0.07128 -0.276357,-0.07128 h -0.232491 z m 1.162453,0.810428 v -1.571507 h 0.501171 q 0.144758,0 0.248941,0.02851 0.105279,0.02851 0.172174,0.08115 0.06799,0.05264 0.0998,0.129405 0.0318,0.07567 0.0318,0.171078 0,0.05812 -0.01864,0.111859 -0.01755,0.05374 -0.05374,0.0998 -0.03619,0.04606 -0.09212,0.08225 -0.05483,0.03619 -0.129405,0.05922 0.172174,0.034 0.259907,0.123922 0.08773,0.08993 0.08773,0.236878 0,0.0998 -0.03729,0.182044 -0.03619,0.08225 -0.107472,0.141469 -0.07019,0.05922 -0.173272,0.09212 -0.103085,0.0318 -0.234684,0.0318 z m 0.211654,-0.716116 v 0.547231 h 0.339963 q 0.09102,0 0.156822,-0.02084 0.0658,-0.02084 0.107472,-0.05812 0.04277,-0.03838 0.06251,-0.08993 0.01974,-0.05264 0.01974,-0.115149 0,-0.121728 -0.08664,-0.191914 -0.08664,-0.07128 -0.259907,-0.07128 z m 0,-0.151338 h 0.280744 q 0.08992,0 0.155725,-0.01974 0.0669,-0.01974 0.109665,-0.05483 0.04387,-0.03509 0.0647,-0.08444 0.02084,-0.05045 0.02084,-0.109666 0,-0.139275 -0.08334,-0.202881 -0.08335,-0.0647 -0.258811,-0.0647 h -0.289517 z m 2.461989,0.867454 h -0.164499 q -0.02851,0 -0.04606,-0.01426 -0.01755,-0.01426 -0.02632,-0.03619 L 80.843067,92.6806 h -0.705149 l -0.146952,0.379443 q -0.0066,0.01974 -0.02522,0.03509 -0.01864,0.01535 -0.04606,0.01535 h -0.164498 l 0.628383,-1.571507 h 0.214944 z m -1.029759,-0.583421 h 0.58671 l -0.246747,-0.639349 q -0.01206,-0.02851 -0.02413,-0.0658 -0.01097,-0.03729 -0.02303,-0.08006 -0.01097,0.04277 -0.02303,0.08115 -0.01097,0.03729 -0.02303,0.0658 z m 1.346688,-0.988086 q 0.01426,0 0.02413,0.0022 0.0099,0.0011 0.01755,0.0055 0.0077,0.0033 0.01535,0.01097 0.0077,0.0066 0.01645,0.01755 l 0.909127,1.183291 q -0.0022,-0.02851 -0.0044,-0.05483 -0.0011,-0.02742 -0.0011,-0.05154 v -1.113105 h 0.186431 v 1.571507 h -0.106375 q -0.02522,0 -0.04277,-0.0088 -0.01645,-0.0088 -0.0329,-0.02961 l -0.909127,-1.183291 q 0.0022,0.02742 0.0033,0.05374 0.0011,0.02632 0.0011,0.04825 v 1.119685 h -0.186431 v -1.571507 h 0.109665 z m 2.842527,1.571507 h -0.164498 q -0.02851,0 -0.04606,-0.01426 -0.01755,-0.01426 -0.02632,-0.03619 L 84.002524,92.6806 h -0.705149 l -0.146952,0.379443 q -0.0066,0.01974 -0.02522,0.03509 -0.01864,0.01535 -0.04606,0.01535 h -0.164498 l 0.628383,-1.571507 h 0.214945 z m -1.029759,-0.583421 h 0.58671 l -0.246747,-0.639349 q -0.01206,-0.02851 -0.02413,-0.0658 -0.01097,-0.03729 -0.02303,-0.08006 -0.01097,0.04277 -0.02303,0.08115 -0.01097,0.03729 -0.02303,0.0658 z"
   id="text20-6"
   aria-label="AREA URBANA" /></g><polygon
   class="fil1 str1"
   points="110.905,67.4733 110.187,66.5354 108.752,66.1071 107.606,66.5238 107.756,65.3662 107.525,65.2388 106.784,65.4125 106.529,65.2737 105.753,64.3011 104.827,64.5906 104.364,64.278 103.554,64.359 103.727,65.5051 103.658,66.2113 103.033,67.0333 101.898,68.0057 101.759,68.5036 102.141,68.9203 101.921,69.1982 99.9649,68.8624 99.7218,68.6077 99.2935,68.6887 98.8883,68.191 98.6799,68.6772 98.1937,68.8277 97.4643,68.4457 96.897,69.0129 96.6424,68.5961 96.2603,68.8624 96.0171,68.8277 95.9478,68.3184 95.7393,67.9595 95.8204,67.3805 95.23,67.3689 94.6627,67.6005 94.0028,66.8133 94.1302,66.3386 93.806,66.2461 93.0882,66.767 93.3429,67.1722 92.8683,67.3227 92.382,66.385 91.8263,66.3618 91.4675,66.5471 89.6963,68.0173 89.2448,67.589 88.9784,66.5123 87.8902,65.8524 87.2998,64.5906 86.6516,64.3127 86.2464,63.9654 86.0958,63.4444 85.517,62.9003 85.1234,62.2983 84.4752,61.9047 83.4215,62.472 84.2435,62.854 84.7876,63.0045 85.1117,63.595 85.8412,64.5906 86.3389,65.7136 87.184,65.8524 87.8207,66.4428 88.5965,67.9132 89.0016,68.2488 88.5385,68.793 88.4575,69.0939 88.2606,70.2863 88.7816,70.6105 89.5689,70.0665 90.2982,70.7495 90.8886,71.1199 91.9769,72.8218 93.1809,72.8218 93.7713,72.6017 94.3964,72.8333 94.9753,72.787 96.0056,73.25 97.0244,72.868 97.5222,72.949 98.0316,73.4468 100.046,73.5048 101.875,74.0373 104.167,74.1761 104.434,74.3498 105.14,74.1878 105.8,74.593 107.154,76.8388 107.212,77.383 108.705,78.7143 108.37,79.3163 108.289,79.9762 107.733,79.9993 106.68,81.1107 105.638,81.6549 105.939,85.3711 106.46,86.1699 105.279,86.8992 105.406,88.6126 102.825,88.5546 101.389,87.9064 100.787,89.1567 98.7261,91.7151 98.2167,97.3415 99.9996,96.9015 100.15,98.5339 100.775,98.5107 100.451,99.2517 100.555,100.317 102.35,98.4066 104.48,96.8321 105.047,96.8437 105.545,97.0637 106.483,98.1866 105.29,107.217 105.614,107.668 105.429,107.9 103.253,107.587 103.218,110.203 101.898,111.57 103.195,113.167 103.172,114.857 103.751,115.228 104.41,117.624 103.82,119.685 103.415,120.021 103.183,122.672 103.785,123.285 104.688,123.436 104.7,124.489 105.36,124.952 106.645,124.779 107.293,124.292 107.733,124.871 108.995,125.126 109.377,125.531 109.84,125.334 110.477,124.675 110.778,123.262 111.067,123.308 113.221,125.879 115.408,128.796 113.985,130.266 114.563,131.331 112.329,132.917 112.537,133.82 111.241,135.719 110.083,138.798 109.273,140.952 109.308,141.507 109.632,142.248 110.141,142.723 110.199,144.946 109.551,146.161 110.176,147.516 121.047,146.682 122.679,146.103 124.161,145.374 125.851,145.791 126.488,145.177 127.031,131.447 126.522,128.46 126.904,128.356 127.68,127.546 128.907,127.198 129.671,127.742 130.146,127.881 130.702,127.534 130.956,127.002 131.35,127.534 131.674,126.99 133.005,128.217 133.341,111.303 133.688,111.025 134.753,111.72 135.575,111.523 136.096,111.639 136.86,111.581 139.141,109.798 140.299,108.143 142.66,103.385 144.177,102.03 146.793,100.213 147.326,99.0549 150.857,96.7048 152.79,95.8018 153.3,94.8525 154.202,94.9566 155.094,95.8944 154.92,97.1216 155.337,98.2676 155.499,99.5758 156.877,100.294 157.456,101.173 156.888,102.632 158.393,104.959 159.586,103.674 162.908,104.392 162.33,102.597 163.036,101.162 163.811,100.641 164.274,99.8768 164.043,98.8813 163.615,98.2445 163.406,96.288 164.055,95.6513 164.355,94.482 164.957,93.7064 166.057,92.896 166.15,89.7008 167.47,87.0844 167.389,85.4637 166.289,84.4913 165.976,81.4581 162.526,78.4133 158.775,78.3439 157.919,76.8736 157.907,72.706 158.162,70.4832 157.618,68.7002 157.664,67.2995 157.039,65.7136 157.166,64.9263 158.498,63.4791 158.88,62.7382 158.88,61.6615 158.555,60.8859 158.173,59.4736 158.173,57.3318 156.367,55.2248 156.321,53.6272 156.252,53.141 156.066,52.7821 155.534,52.4695 155.036,52.2728 154.793,52.0181 154.492,51.4624 154.33,50.9877 154.237,49.2165 153.601,48.0472 153.392,47.2947 153.323,45.5235 152.918,44.2384 152.084,43.1502 150.857,42.1892 150.394,42.1314 148.507,41.1242 147.893,40.5222 147.847,37.5007 146.342,37.4892 146.029,37.6859 146.388,38.4616 146.099,38.8783 146.226,39.3414 145.89,39.654 145.566,39.8161 144.686,39.6193 144.385,39.7929 144.895,40.2443 144.895,40.4991 144.27,40.8117 144.165,42.1314 137.231,44.8173 136.583,47.2252 130.042,44.9562 129.034,44.794 128.27,44.5279 127.773,44.1573 127.02,43.2197 126.372,42.8376 125.249,42.7218 124.381,42.5251 124.161,48.6723 123.443,48.1745 123.072,47.8505 123.003,46.2413 121.07,46.0212 120.607,45.9287 119.97,45.9287 119.507,46.0097 119.102,46.4959 117.793,47.7346 119.206,48.2786 119.218,48.2869 119.495,48.3945 120.19,48.9618 122.366,52.4232 123.617,52.458 124.299,52.8516 123.941,53.3726 123.871,54.7501 123.188,56.4752 122.933,56.9729 122.702,58.1191 122.273,59.0452 121.915,59.7515 120.989,61.3838 120.641,62.1825 120.236,63.2129 119.669,64.3705 119.09,64.1159 118.951,63.6181 118.314,63.3518 117.863,62.935 116.856,63.0045 117.18,63.5371 116.994,63.8843 116.763,64.5211 116.636,65.0536 116.497,65.8061 116.682,66.3386 116.115,67.2879 115.628,67.3459 115.015,67.9247 115.814,68.7583 114.042,69.3023 113.302,69.0591 112.618,68.5382 112.572,69.858 111.704,68.9318 111.542,68.2952 "
   id="polygon2"
   style="fill:none;stroke:#ffffff;stroke-width:0.2;stroke-linejoin:round;stroke-dasharray:none;stroke-opacity:1"
   transform="matrix(0.99999421,0,0,0.99999421,4.8220827e-4,2.1638327e-4)"
   inkscape:label="polygon2" />
  <polygon
   class="fil2 str1"
   points="54.3751,74.9866 54.0511,75.4033 53.5069,75.716 52.6039,75.658 51.5388,75.878 51.1569,76.3526 49.617,76.3526 49.3972,75.797 48.9225,75.3686 47.6375,75.4613 46.5723,75.056 45.461,74.373 44.8589,74.6393 44.7779,75.0213 44.1412,75.8085 43.6435,76.1095 43.6435,76.5495 43.0877,77.3598 42.4973,77.8693 41.6638,77.9734 40.4482,78.8764 38.9317,80.775 37.8087,81.4117 36.9289,82.581 36.3847,82.7431 36.4657,83.5882 36.8363,84.3059 36.6743,84.7574 35.8754,85.3247 34.6251,85.8341 34.0578,86.957 33.9189,88.6126 34.4398,89.4924 34.0116,89.6545 33.9767,90.187 33.1433,90.7542 32.8423,91.4257 32.3214,91.9119 31.7656,93.4054 31.8003,93.9031 31.3372,94.5631 31.3604,95.0956 30.6774,95.7324 30.2953,96.6585 29.5428,96.6817 27.3317,97.2026 25.653,97.7582 23.5808,98.1518 23.0482,98.6497 22.9556,99.2748 22.4346,100.421 23.7544,100.514 24.5185,100.155 25.7919,100.236 26.4055,99.8305 27.3201,99.981 27.9453,99.4832 28.3736,99.7727 28.8135,99.7495 29.3923,100.247 30.7815,100.189 31.3372,101.035 31.8003,101.104 32.1592,101.428 34.2546,101.44 36.1996,101.312 37.4151,100.93 37.6814,101.509 38.2139,101.463 38.9085,100.803 39.2443,101.046 39.6727,101.046 41.1545,99.4368 41.7564,98.3024 41.5712,97.6541 41.7912,96.207 42.4395,95.605 42.4742,94.5399 42.7174,93.9842 42.7057,93.4864 43.3772,92.8265 42.6478,91.8657 43.1109,91.3563 43.5161,90.7079 44.1412,89.064 44.2107,87.7673 44.0602,86.9802 45.3453,86.2509 46.1672,85.6141 47.3249,85.2901 47.7533,84.0049 48.4016,83.5998 49.0151,82.7084 49.3162,82.8009 50.4622,81.5969 51.5388,81.7823 52.1177,81.4465 52.8123,81.4465 53.6574,80.9024 54.6299,80.856 56.077,81.5159 57.3157,81.4696 59.0407,82.0716 60.2331,81.7011 60.6498,81.9558 61.2172,81.4927 61.6107,81.9211 61.9928,82.0831 62.8842,81.9674 63.8914,82.28 64.4587,82.0484 65.0259,82.0138 65.5932,82.6852 66.9245,82.6736 67.2834,82.3842 68.3948,82.3495 68.7189,82.5693 69.8766,82.4883 70.6754,82.963 71.2196,82.0831 71.7405,81.8285 72.1457,80.914 71.7868,80.4508 71.81,79.6752 71.5205,79.2353 71.59,78.5638 71.2426,77.9734 71.2196,76.6653 71.6132,76.4684 72.6435,76.4568 73.2802,76.7463 74.5074,76.6421 75.2714,76.0632 75.5955,76.3526 76.2903,76.4221 76.6143,75.9127 77.4362,75.9243 78.0499,75.9822 78.3277,75.6812 78.3277,74.9171 78.8371,74.8129 79.1844,74.3614 80.099,74.4657 80.4,73.8057 80.3653,73.0532 81.1409,72.2776 81.1178,71.5714 80.4347,70.9463 80.5041,69.6844 79.3812,69.4528 79.3812,69.1171 78.5709,68.7119 78.0268,67.7626 77.4943,69.3139 77.0427,69.939 76.406,71.7103 75.9776,72.2429 76.0008,72.5901 75.3988,73.2037 74.6347,72.7291 74.0327,73.0069 73.5117,73.0184 73.1761,73.5164 72.6203,73.6437 72.1109,74.0026 70.6871,73.8404 69.9808,74.1761 68.9852,74.4194 67.1561,73.25 67.133,72.8796 66.7046,72.5785 65.9868,72.5207 64.7018,71.9419 64.1692,72.127 63.4861,72.8333 62.3632,72.8333 60.7425,74.0373 59.99,74.9634 59.2491,75.4959 58.566,76.1327 57.4199,76.1211 56.0654,75.6928 55.2434,75.056 "
   id="polygon3"
   style="fill:none;stroke:#ffffff;stroke-width:0.2;stroke-linejoin:round;stroke-dasharray:none;stroke-opacity:1"
   name="Pichindé" />
  <polygon
   class="fil2 str1"
   points="64.586,36.5746 65.0375,36.806 64.7943,37.1418 64.7943,37.628 64.9449,37.6975 65.3154,37.6628 65.4774,37.8712 65.2458,38.0795 65.2458,38.4616 65.6047,38.7046 65.6511,39.3645 65.929,39.4803 66.1373,39.7698 66.5888,39.7119 66.9477,39.9086 67.0751,40.2443 67.4686,40.256 67.5729,40.0128 68.1749,40.4296 68.0012,40.9391 68.7536,41.7493 70.6407,41.7378 71.3006,41.1706 71.8911,41.2631 72.6666,41.7031 73.4076,41.7493 73.7896,42.0967 74.4959,42.2241 75.9082,43.1271 76.2671,43.4743 77.1585,43.4049 77.3552,43.1965 77.8878,43.2428 77.992,42.745 78.4551,42.3977 78.4899,41.6452 78.2814,40.9391 77.9805,40.7422 77.8878,40.3486 78.0499,39.9202 78.513,39.8739 79.277,39.6771 80.5273,39.5845 80.8978,39.353 81.4073,39.3414 81.7429,38.6352 82.1481,38.6699 82.8891,38.2763 82.9353,37.9985 83.8846,37.9754 84.394,37.4428 84.6835,36.8177 85.598,36.7482 86.0263,36.945 86.9293,36.563 87.184,35.6715 87.7282,35.2779 87.705,34.0971 87.4503,33.4834 87.4271,33.0552 87.2303,32.8237 87.3924,32.1637 87.184,31.6659 86.8136,31.2607 86.9061,30.1957 86.7094,29.5358 87.2535,28.7138 88.446,25.5881 89.4763,24.4073 88.9206,23.6084 88.4228,21.895 87.5546,20.0195 87.5661,18.8851 87.3114,17.8664 86.8483,17.2064 86.3158,16.5467 85.4591,16.014 83.4678,14.5437 82.4722,13.4439 81.1757,12.5756 80.0295,12.4599 78.513,11.9274 77.8531,11.9274 77.3089,12.4021 77.1122,13.0618 76.406,13.7449 75.3525,14.2196 75.2483,14.6595 74.218,14.6132 73.7896,16.0256 72.6203,17.5769 71.7058,19.4523 70.5481,20.2164 69.5987,21.3162 68.6841,21.0499 68.1169,21.212 67.1445,23.1454 67.596,24.4535 67.0635,25.0324 67.0402,25.4144 67.3876,26.248 67.2371,27.2435 66.8319,27.6487 66.2647,28.8065 65.8711,29.0149 65.7785,29.5358 65.1185,30.0452 64.667,30.2189 64.4239,31.1797 64.366,32.0596 64.1924,32.8699 64.5513,33.4951 64.2387,33.9582 64.366,34.3866 64.4354,35.3937 64.6439,35.6599 "
   id="polygon4"
   style="fill:none;stroke:#ffffff;stroke-width:0.2;stroke-linejoin:round;stroke-dasharray:none;stroke-opacity:1"
   name="La Elvira" />
  <polygon
   class="fil2 str1"
   points="113.163,60.5966 112.676,61.3375 112.607,62.0899 112.931,62.4141 113.313,62.5298 112.966,63.2014 112.989,64.4632 112.757,64.8685 112.723,65.343 112.121,65.7251 111.704,66.3155 111.403,67.0101 110.907,67.471 111.542,68.2952 111.704,68.9318 112.572,69.858 112.618,68.5382 113.302,69.0591 114.042,69.3023 115.814,68.7583 115.015,67.9247 115.628,67.3459 116.115,67.2879 116.682,66.3386 116.497,65.8061 116.636,65.0536 116.809,64.2317 116.994,63.8843 117.18,63.5371 116.856,63.0045 117.863,62.935 118.314,63.3518 118.951,63.6181 119.09,64.1159 119.669,64.3705 120.236,63.2129 120.641,62.1825 120.989,61.3838 121.463,60.3881 121.915,59.7515 122.702,58.1191 122.933,56.9729 123.188,56.4752 123.871,54.7501 123.941,53.3726 124.299,52.8516 123.617,52.458 122.366,52.4232 120.19,48.9618 119.218,48.2869 117.793,47.7346 119.102,46.4959 119.507,46.0097 119.97,45.9287 120.607,45.9287 121.07,46.0212 123.003,46.2413 123.072,47.8505 124.161,48.6723 124.381,42.5251 125.249,42.7218 126.372,42.8376 125.515,42.3629 124.948,41.8652 125.145,41.5526 125.145,40.9738 124.763,40.5802 124.172,40.5802 123.871,40.2213 123.35,40.2213 123.211,39.8624 122.494,39.8854 121.868,39.3762 121.023,39.0173 120.722,39.7119 120.004,39.6888 119.449,39.3762 118.036,39.5382 117.064,39.0056 116.763,39.1794 115.756,39.0867 114.39,38.45 113.255,38.1837 111.611,36.945 111.357,36.2157 110.569,35.139 110.002,35.0927 109.724,35.2779 109.134,35.2779 108.902,34.977 108.833,34.4908 108.983,34.0392 108.648,33.8308 108.185,34.3402 108.242,34.919 108.057,35.3127 107.86,35.5094 107.907,35.8105 107.062,36.8987 106.668,37.4081 106.217,37.5123 105.51,38.6584 105.522,39.1214 105.209,39.5266 104.862,39.515 104.329,40.1171 104.318,40.3948 103.693,41.0779 103.38,41.1706 103.218,41.6336 103.403,42.3051 103.288,42.664 103.473,42.9418 103.299,43.2428 103.45,43.7984 103.369,44.1111 103.577,44.331 103.334,44.794 103.288,45.3383 103.45,45.7319 103.646,45.9287 103.693,46.2876 103.496,46.658 103.415,47.0169 103.577,47.1674 104.04,47.0747 104.272,47.2252 104.26,47.5726 104.619,47.9893 104.885,47.9083 105.244,48.3019 105.788,48.3482 106.089,48.6145 106.46,48.5797 107.027,48.383 107.409,48.8344 107.745,48.8576 107.918,49.3554 108.37,49.4133 108.914,48.8229 108.891,48.3714 109.157,48.0472 109.122,47.3988 109.47,47.0169 109.655,46.6465 109.527,46.3338 110.164,45.5003 110.338,44.5742 111.021,43.8911 111.449,43.7638 111.936,43.949 111.785,44.3426 111.808,45.0372 111.6,45.2457 111.623,45.7434 111.947,45.9749 112.225,45.7782 112.433,45.8245 112.468,46.2413 112.665,46.6001 112.908,46.7043 113.429,46.4959 113.591,46.1718 114.158,45.9402 114.529,46.3801 114.401,46.9473 114.563,47.1789 114.598,47.5957 114.818,47.7924 114.668,48.2904 114.158,48.5219 113.95,49.0428 113.406,49.5869 113.221,50.0616 113.417,50.4436 113.429,51.2192 113.255,51.8676 113.44,52.6317 113.961,53.2683 113.961,54.1019 113.475,54.5303 113.371,55.0859 113.51,55.63 112.943,56.2089 113.012,56.6026 113.302,57.1582 113.255,57.6097 112.919,57.9454 113.163,58.9873 "
   id="polygon5"
   style="fill:none;stroke:#ffffff;stroke-width:0.2;stroke-linejoin:round;stroke-dasharray:none;stroke-opacity:1"
   name="Golondrinas" />
  <polygon
   class="fil2 str1"
   points="45.9936,107.83 46.3293,108.305 46.3872,109.011 46.7808,110.574 46.6882,112.009 46.3408,112.449 46.1904,113.387 45.8315,113.758 45.7157,114.915 45.1137,115.633 45.0211,116.768 44.4771,117.231 44.4886,117.543 43.5972,118.4 43.4466,119.28 42.972,120.414 42.289,121.201 41.9648,122.359 41.2008,123.007 40.8534,123.494 39.6958,123.922 39.1863,124.779 39.2095,125.195 38.3876,126.944 37.6235,127.708 36.8941,127.951 36.3732,128.414 36.35,128.761 35.6091,129.317 35.2039,129.34 34.7061,129.757 35.146,130.602 35.5744,132.06 36.3964,132.547 37.3456,132.593 38.1213,133.253 39.8925,133.774 40.4135,134.168 40.8997,134.133 42.59,134.874 44.1992,134.839 45.0327,135.094 46.5492,135.082 47.5218,134.677 48.9341,135.024 49.536,134.885 51.0526,135.418 51.5388,135.175 52.4651,135.244 53.6806,134.712 55.6371,134.55 56.5747,135.082 57.443,135.094 57.8598,134.457 58.5313,134.098 58.5429,133.16 58.9249,132.663 59.4343,132.408 59.8395,131.713 61.1362,130.891 62.0391,130.66 62.1201,130.301 62.5485,130.336 63.3936,129.363 64.6902,129.467 65.7553,130.011 66.7856,129.548 68.0822,129.132 68.2096,127.974 68.499,127.21 69.0315,126.423 69.5987,126.064 70.1082,126.098 70.6523,125.763 71.5322,124.894 72.6203,124.119 73.5234,122.544 73.5234,121.815 74.4843,121.155 75.3294,120.264 77.5406,119.801 77.8994,119.118 78.8835,118.805 79.6127,118.307 79.659,117.045 79.8674,116.281 80.3536,115.807 80.5737,116.003 81.0599,116.003 81.6503,115.494 82.3797,115.297 82.6806,115.459 83.5025,115.494 84.7182,114.962 85.4128,114.082 85.2622,113.225 85.2739,112.681 84.4403,112.102 84.0468,112.125 83.7573,111.732 84.2319,111.164 84.2435,110.817 84.7066,110.342 84.7528,110.041 85.517,109.868 86.1653,109.335 86.64,107.888 87.2303,106.892 88.6427,105.862 88.828,105.376 89.5226,104.774 90.5876,104.264 91.2822,102.956 91.8032,102.922 93.0767,101.463 93.4356,100.722 94.0839,99.9694 93.9218,99.5758 93.4124,99.3212 92.8567,99.4368 92.0463,99.7958 91.5139,99.8768 91.0507,99.5873 90.6803,99.8652 90.4024,99.6337 90.0666,99.8305 89.1637,99.3096 88.5848,99.5642 87.9713,101.393 87.0683,101.393 86.9525,101.59 86.2348,101.59 85.7021,101.197 85.8295,100.78 85.5633,100.525 85.2044,100.791 84.8802,100.305 84.4287,100.432 84.1625,100.132 83.8384,100.051 83.6184,100.328 83.1089,100.236 83.0163,100.421 82.6227,100.409 82.3566,100.12 82.0439,100.201 81.3724,99.9462 81.2799,99.5526 80.7936,99.1823 79.9601,99.4022 78.675,99.4022 78.1657,99.1243 76.7185,99.7264 75.8041,99.5063 74.7389,98.8696 72.6203,98.8696 72.1225,99.2633 71.59,100.097 70.8144,102.053 69.9693,102.586 68.3484,102.563 67.5034,103.072 65.7785,102.979 64.7943,103.396 62.8611,105.202 62.7569,105.631 62.0043,106.221 60.5688,106.522 59.77,106.985 58.5429,107.112 56.8643,107.529 55.0698,108.108 53.6228,108.108 50.1613,107.483 48.3784,107.251 46.2135,107.147 45.9473,107.332 "
   id="polygon6"
   style="fill:none;stroke:#ffffff;stroke-width:0.2;stroke-linejoin:round;stroke-dasharray:none;stroke-opacity:1"
   name="Villacarmelo" />
  <polygon
   class="fil2 str1"
   points="126.522,128.46 127.031,131.447 126.488,145.177 126.916,145.524 127.24,146.277 127.842,149.067 128.166,151.012 128.039,153.466 127.657,157.24 127.865,161.848 128.467,163.434 128.687,167.15 127.333,172.753 126.256,176.608 127.692,177.002 128.467,177.592 128.583,178.449 129.266,179.097 129.636,179.711 130.146,179.977 130.586,179.769 130.968,179.896 131.141,180.869 131.755,181.042 132.461,181.459 133.005,181.366 133.549,181.887 134.221,181.887 134.394,181.343 134.892,181.285 135.668,181.714 136.386,181.853 137.266,181.436 137.96,181.007 138.331,180.29 138.632,179.989 139.292,180.024 139.593,180.521 139.697,180.845 140.507,181.413 140.947,181.285 141.213,180.834 141.468,180.973 141.433,181.54 141.862,181.957 141.931,182.269 142.394,182.432 142.012,183.057 142.302,183.647 142.371,184.388 142.626,184.585 143.123,184.295 143.563,183.74 143.471,183.288 143.297,182.779 143.494,182.466 144.189,182.374 144.293,182.13 144.235,181.76 144.548,181.447 144.212,181.054 144.327,180.845 144.779,180.799 145.543,181.355 145.925,181.193 146.133,180.892 146.099,180.487 145.566,179.954 145.589,179.503 146.157,178.97 146.701,177.882 146.921,176.886 146.573,176.145 146.168,175.682 146.11,175.126 146.481,174.756 146.284,174.467 145.763,173.899 145.416,173.228 145.3,172.452 145.647,171.688 147.326,170.033 147.882,169.28 148.217,168.366 148.078,167.428 147.592,165.877 147.685,165.17 148.067,164.511 148.634,164.082 149.421,163.862 150.255,163.955 150.857,164.175 151.575,164.626 152.015,165.17 152.316,165.946 152.42,166.976 152.292,168.007 152.397,168.805 152.651,169.732 152.952,170.565 153.392,170.982 153.971,171.422 154.596,171.596 155.418,171.549 156.113,171.283 156.518,170.82 156.715,170.137 156.634,169.292 156.194,168.319 156.089,167.775 156.171,167.173 156.46,166.525 156.865,166.039 157.954,165.263 158.393,164.916 158.602,164.638 158.602,164.302 158.532,163.978 158.278,163.11 157.872,162.311 157.456,161.084 157.328,159.857 157.085,158.988 156.089,157.657 155.696,157.055 155.522,156.476 155.43,155.84 155.464,155.342 155.65,154.879 156.032,154.381 156.599,154.103 157.317,153.999 158.069,154.091 158.764,154.381 159.377,154.786 159.817,155.446 160.13,156.245 160.269,157.148 160.269,158.097 160.292,158.757 160.431,159.451 160.79,159.961 161.195,160.25 161.67,160.331 162.133,160.123 162.364,159.532 162.387,158.873 162.295,158.132 162.075,157.298 161.936,156.256 162.029,155.399 162.144,154.554 162.492,154.161 162.978,153.929 163.534,154.01 164.078,154.485 164.448,155.295 164.865,156.036 165.351,156.627 165.768,156.789 166.196,156.708 166.532,156.337 166.555,155.978 166.393,155.376 166.208,154.879 166.127,154.207 166.254,153.547 166.555,153.096 167.134,152.691 167.678,152.285 168.002,151.892 167.91,151.348 167.516,150.885 167.03,149.924 166.706,148.696 166.752,147.423 167.157,146.289 167.238,145.478 167.099,144.309 166.601,143.487 165.386,142.132 164.969,141.484 164.726,140.789 164.668,140.141 164.761,139.643 165.096,139.03 165.444,138.555 165.571,138.161 165.513,137.745 165.177,136.599 165.085,135.881 165.189,135.198 165.478,134.422 165.93,133.658 166.671,132.778 166.983,132.419 166.983,132.014 166.729,131.783 166.324,131.736 165.71,131.586 165.166,131.227 164.853,130.752 164.436,129.733 163.696,127.441 161.125,128.344 159.493,128.275 159.435,127.025 158.949,126.249 158.197,125.751 157.398,125.566 156.252,125.74 155.14,126.318 154.388,127.337 153.902,128.472 153.948,129.907 153.844,130.66 153.415,131.308 152.709,131.899 151.598,131.818 150.683,132.257 150.081,132.246 150.035,131.852 150.614,131.262 151.366,129.768 151.494,128.321 151.737,127.268 152.281,125.659 153.08,124.281 153.797,123.366 154.805,122.567 155.476,122.209 156.159,121.34 156.483,120.565 156.24,119.685 156.055,119.453 156.113,118.4 155.106,118.261 152.628,119.094 151.528,120.206 150.66,121.329 148.125,122.672 144.189,121.931 139.326,116.825 138.828,117.416 138.504,118.064 138.273,118.875 138.423,119.523 137.682,119.673 137.775,120.16 137.428,120.518 137.706,121.213 137.127,121.34 137.127,121.757 136.698,122.139 136.698,123.019 136.305,123.285 136.386,124.466 135.483,125.045 135.46,125.89 135.193,126.793 134.36,126.978 134.244,127.36 133.584,127.279 133.005,128.217 131.674,126.99 131.35,127.534 130.956,127.002 130.702,127.534 130.146,127.881 129.671,127.742 128.907,127.198 127.68,127.546 126.904,128.356 "
   id="polygon7"
   style="fill:none;stroke:#ffffff;stroke-width:0.2;stroke-linejoin:round;stroke-dasharray:none;stroke-opacity:1"
   name="El Hormiguero" />
  <polygon
   class="fil3 str1"
   points="84.2204,137.756 83.5953,137.12 83.2132,137.235 82.7965,137.096 82.2523,136.483 81.604,136.529 81.2451,136.124 81.0368,136.101 81.0021,136.448 80.6663,136.379 80.62,135.985 80.3306,135.742 80.2958,135.198 79.8906,134.214 79.277,133.6 78.7907,133.496 77.2279,131.771 76.3713,131.563 76.1281,131.204 76.1281,130.498 75.283,129.873 74.8777,129.873 74.3915,129.108 73.4423,128.865 72.8172,128.368 71.7058,128.159 69.5756,126.839 69.182,126.805 69.0315,126.423 68.499,127.21 68.2096,127.974 68.0822,129.132 66.7856,129.548 65.7553,130.011 64.6902,129.467 63.3936,129.363 62.5485,130.336 62.1201,130.301 62.0391,130.66 61.1362,130.891 59.8395,131.713 59.4343,132.408 58.9249,132.663 58.5429,133.16 58.5313,134.098 57.8598,134.457 57.443,135.094 56.5747,135.082 55.6371,134.55 53.6806,134.712 52.4651,135.244 51.5388,135.175 51.0526,135.418 49.536,134.885 48.9341,135.024 47.5218,134.677 46.5492,135.082 45.0327,135.094 44.1992,134.839 42.59,134.874 40.8997,134.133 40.4135,134.168 39.8925,133.774 38.1213,133.253 37.3456,132.593 36.3964,132.547 35.5744,132.06 35.146,130.602 34.7061,129.757 34.3936,129.653 33.7569,129.004 32.877,128.796 32.0203,128.368 31.3604,128.865 29.9017,128.657 28.3272,128.668 27.2274,128.113 26.8338,127.673 25.1321,126.863 24.6459,126.365 24.1365,126.122 22.9093,126.261 22.0757,125.994 21.3926,126.006 21.0918,125.821 21.1381,125.381 20.5013,125.207 20.2698,125.439 19.7141,125.485 19.3089,125.138 18.5796,124.918 17.9429,125.601 17.5492,125.716 17.5724,126.643 17.3871,127.048 16.9935,127.337 16.5767,127.939 16.1947,127.962 15.5696,128.831 15.2107,128.831 14.9097,129.328 14.5393,129.606 14.3539,130.173 14.0299,130.451 13.9372,131.019 13.9256,131.794 14.4583,132.79 15.0023,133.311 15.0487,133.855 14.7128,134.469 14.9445,135.395 15.0487,136.379 15.5579,137.096 16.2063,137.745 16.5651,138.382 16.542,138.752 17.4449,139.643 18.3712,140.419 17.9776,141.334 17.746,142.352 18.2322,143.545 17.8617,144.459 18.1281,145.108 18.0354,145.744 18.4175,146.208 18.4291,146.948 18.0702,147.805 17.8848,148.592 17.3293,149.588 17.5724,149.889 17.5724,150.155 17.2251,150.595 17.1556,151.301 17.3986,151.718 16.3684,155.261 16.7389,156.268 16.7157,160.459 20.0498,159.567 21.7053,159.59 22.6546,159.278 23.2682,159.278 24.368,158.56 25.0858,158.768 25.7108,158.247 26.7065,157.923 28.802,157.912 29.5891,158.294 30.2491,158.282 30.9669,158.757 31.8467,158.78 32.2982,158.977 32.9001,158.595 33.56,158.375 34.9261,158.444 35.8985,158.213 36.4774,157.9 37.5309,158.27 38.596,158.456 39.0474,159.799 39.7652,160.713 40.3325,161.871 41.3049,162.473 41.5712,162.832 41.5827,163.376 42.6825,165.124 44.3149,165.506 45.2178,165.495 46.2135,166.34 46.8271,166.386 48.008,167.567 50.196,167.914 52.8933,167.856 54.8962,167.208 56.2739,166.363 57.4083,165.576 58.2303,164.661 58.9944,163.457 60.0015,163.503 60.5688,163.144 61.2287,163.029 62.0391,163.538 63.0579,163.492 63.4283,164.059 64.0188,164.36 64.7018,164.348 65.1417,164.73 65.4427,164.684 66.6931,163.642 67.6655,163.596 68.1632,163.364 68.3369,162.473 68.8464,161.744 69.483,161.13 70.5713,160.493 71.6015,160.123 72.6435,160.146 73.7665,160.378 74.7621,160.273 76.0702,159.475 78.814,159.081 79.5548,158.78 80.3306,157.935 81.2914,157.391 84.7066,158.062 85.8295,157.726 86.5126,157.738 87.1493,158.27 87.9713,158.27 89.1289,158.965 90.2519,159.845 91.016,160.586 91.4791,161.315 91.78,162.207 92.1621,164.626 92.6946,165.101 93.0072,166.085 94.5238,167.196 96.735,168.528 96.735,169.338 97.6148,170.264 97.939,170.264 98.6451,171.283 99.0735,171.7 100.393,175.207 100.625,175.358 101.042,175.173 101.285,175.289 101.354,175.833 101.759,176.238 102.211,175.891 102.882,176.238 104.098,177.199 104.596,178.067 104.538,178.831 104.584,179.514 105.059,179.746 105.163,179.537 105.082,179.109 105.209,178.611 105.788,178.449 106.217,178.704 106.633,178.414 107.189,178.53 107.478,178.113 107.664,177.419 107.976,177.06 108.532,176.979 108.671,176.608 109.145,176.087 109.933,176.354 110.604,176.713 110.847,177.199 110.847,177.859 110.998,177.963 111.368,177.754 111.542,177.94 111.496,178.322 111.658,178.414 112.017,178.229 112.364,178.484 112.537,177.986 112.896,177.558 112.746,177.106 112.781,176.817 113.255,177.152 113.313,177.812 113.684,178.38 114.135,178.657 114.818,178.426 115.119,178.738 115.281,179.19 114.76,179.549 114.621,179.942 114.239,180.093 114.401,180.359 114.123,180.73 113.996,181.228 114.123,181.459 114.644,181.32 115.154,180.938 115.235,180.498 115.779,180.197 116.369,180.255 116.879,179.896 117.099,179.329 117.516,179.294 117.955,179.989 118.419,180.197 119.217,180.058 119.194,179.595 119.657,179.005 120.143,178.669 120.19,178.299 120.641,178.194 121.185,178.507 121.336,178.275 121.081,177.882 121.151,177.453 120.896,177.129 121.44,176.62 121.868,176.574 122.47,176.805 122.852,176.713 122.899,176.539 122.748,176.319 122.922,176.053 123.304,176.111 123.709,175.914 124.253,176.134 124.149,176.551 124.357,176.736 124.6,176.701 125.006,176.273 125.26,176.585 126.256,176.608 127.333,172.753 128.687,167.15 128.467,163.434 127.865,161.848 127.657,157.24 128.039,153.466 128.166,151.012 127.842,149.067 127.24,146.277 126.916,145.524 126.488,145.177 125.851,145.791 124.161,145.374 122.679,146.103 121.047,146.682 110.176,147.516 109.551,146.161 110.199,144.946 110.141,142.723 109.632,142.248 109.308,141.507 109.273,140.952 110.083,138.798 108.879,138.138 107.687,137.687 106.02,137.143 104.121,136.657 102.547,136.344 101.771,136.749 100.648,136.437 99.7103,136.9 97.7075,136.958 96.4571,136.83 95.4152,137.12 94.3501,137.108 93.6555,137.328 92.8104,137.467 91.7337,137.178 90.1709,137.12 89.2099,137.27 88.1681,137.814 87.1147,137.803 86.3505,138.358 85.2739,138.312 85.0192,138.486 84.3824,138.509 84.1278,138.185 "
   id="polygon8"
   style="fill:none;stroke:#ffffff;stroke-width:0.2;stroke-linejoin:round;stroke-dasharray:none;stroke-opacity:1"
   name="Pance" />
  <polygon
   class="fil3 str1"
   points="136.096,111.639 135.575,111.523 134.753,111.72 133.688,111.025 133.341,111.303 133.005,128.217 133.584,127.279 134.244,127.36 134.36,126.978 135.193,126.793 135.46,125.89 135.483,125.045 136.386,124.466 136.305,123.285 136.698,123.019 136.698,122.139 137.127,121.757 137.127,121.34 137.706,121.213 137.428,120.518 137.775,120.16 137.682,119.673 138.423,119.523 138.273,118.875 138.504,118.064 138.828,117.416 139.326,116.825 144.189,121.931 148.125,122.672 150.66,121.329 151.528,120.206 152.628,119.094 155.106,118.261 156.113,118.4 156.055,119.453 156.24,119.685 156.483,120.565 156.159,121.34 155.476,122.209 154.805,122.567 153.797,123.366 153.08,124.281 152.281,125.659 151.737,127.268 151.494,128.321 151.366,129.768 150.614,131.262 150.035,131.852 150.081,132.246 150.683,132.257 151.598,131.818 152.709,131.899 153.415,131.308 153.844,130.66 153.948,129.907 153.902,128.472 154.388,127.337 155.14,126.318 156.252,125.74 157.398,125.566 158.197,125.751 158.949,126.249 159.435,127.025 159.493,128.275 161.125,128.344 163.696,127.441 163.487,127.025 163.406,126.573 163.661,126.041 163.765,125.253 163.58,124.524 163.152,123.795 162.318,123.181 161.867,122.637 161.577,121.722 161.438,120.866 161.01,120.183 160.327,119.407 160.118,118.886 160.06,118.226 160.269,117.717 160.697,117.161 161.288,116.93 161.82,116.837 162.515,116.906 163.047,117.173 163.36,117.15 163.51,117.022 163.545,116.675 163.51,116.038 163.591,115.483 164.02,114.869 164.865,113.711 165.143,113.156 165.235,112.6 165.143,112.056 164.923,111.512 164.552,110.666 164.436,110.122 164.471,109.555 164.761,108.317 164.819,107.413 164.68,106.788 164.286,105.932 163.499,104.878 162.908,104.392 159.586,103.674 158.393,104.959 156.888,102.632 157.456,101.173 156.877,100.294 155.499,99.5758 155.337,98.2676 154.92,97.1216 155.094,95.8944 154.202,94.9566 153.3,94.8525 152.79,95.8018 150.857,96.7048 147.326,99.0549 146.793,100.213 144.177,102.03 142.66,103.385 140.299,108.143 139.141,109.798 136.86,111.581 "
   id="polygon9"
   style="fill:none;stroke:#ffffff;stroke-width:0.2;stroke-linejoin:round;stroke-dasharray:none;stroke-opacity:1"
   name="Navarro" />
  <polygon
   class="fil3 str1"
   points="60.3257,64.741 59.6426,65.0999 59.5385,65.6672 58.9712,65.8987 58.485,66.6397 57.9177,66.686 57.2694,67.3574 55.8224,67.3921 54.5489,67.7626 53.4259,67.1491 52.6965,67.1027 52.5229,66.9522 52.164,66.929 51.8631,67.2879 51.5968,67.2069 51.5736,66.8017 51.2726,66.5934 50.277,66.5934 49.9181,66.767 49.8718,67.0681 50.277,67.5311 49.4435,67.7741 49.2699,68.0289 48.7604,68.1099 48.3552,67.8669 47.4174,68.0173 47.0007,67.8204 46.4103,67.971 45.7853,68.2372 45.8778,69.0591 45.4726,69.3023 45.1716,69.0591 44.6159,69.175 43.6088,70.3211 43.3078,70.8073 42.8447,70.6568 41.9301,70.7378 41.7332,70.1706 41.3396,70.0665 40.6335,69.6266 39.9273,69.858 39.0706,69.3718 38.7001,69.6266 38.7117,70.2169 38.2023,70.8536 37.774,71.6061 36.9751,71.6293 36.5931,72.1502 35.9911,72.3354 35.1807,72.4512 33.1549,71.8262 32.8306,71.5946 32.6222,71.3399 31.8582,71.3283 31.8003,71.9303 31.5688,72.0923 31.0594,71.664 30.7931,71.7798 30.7931,72.2429 31.0479,72.5785 31.0131,72.9374 30.7468,73.1112 30.4689,72.868 30.029,72.6944 29.7049,72.8101 29.7397,73.2153 29.9364,73.5511 29.1492,74.9056 28.9524,75.6348 29.265,75.9937 29.8554,78.8532 29.404,79.4321 29.3345,80.0225 28.2925,80.8213 26.9033,81.2728 25.6415,82.0948 24.5185,83.7734 24.3795,84.7343 22.9093,87.2464 22.2377,87.3969 21.1149,88.3926 21.1265,89.6776 21.74,90.5691 21.7747,92.6877 21.4622,93.6601 19.8878,95.4313 19.9803,96.1144 21.1843,97.5731 21.9484,99.2285 22.041,100.977 22.4346,100.421 22.9556,99.2748 23.0482,98.6497 23.5808,98.1518 25.653,97.7582 27.3317,97.2026 29.5428,96.6817 30.2953,96.6585 30.6774,95.7324 31.3604,95.0956 31.3372,94.5631 31.8003,93.9031 31.7656,93.4054 32.3214,91.9119 32.8423,91.4257 33.1433,90.7542 33.9767,90.187 34.0116,89.6545 34.4398,89.4924 33.9189,88.6126 34.0578,86.957 34.6251,85.8341 35.8754,85.3247 36.6743,84.7574 36.8363,84.3059 36.4657,83.5882 36.3847,82.7431 36.9289,82.581 37.8087,81.4117 38.9317,80.775 40.4482,78.8764 41.6638,77.9734 42.4973,77.8693 43.0877,77.3598 43.6435,76.5495 43.6435,76.1095 44.1412,75.8085 44.7779,75.0213 44.8589,74.6393 45.461,74.373 46.5723,75.056 47.6375,75.4613 48.9225,75.3686 49.3972,75.797 49.617,76.3526 51.1569,76.3526 51.5388,75.878 52.6039,75.658 53.5069,75.716 54.0511,75.4033 54.3751,74.9866 55.2434,75.056 56.0654,75.6928 57.4199,76.1211 58.566,76.1327 59.2491,75.4959 59.99,74.9634 60.7425,74.0373 62.3632,72.8333 63.4861,72.8333 64.1692,72.127 64.7018,71.9419 65.9868,72.5207 66.7046,72.5785 67.133,72.8796 67.1561,73.25 68.9852,74.4194 69.9808,74.1761 70.6871,73.8404 72.1109,74.0026 72.6203,73.6437 73.1761,73.5164 73.5117,73.0184 74.0327,73.0069 74.6347,72.7291 75.3988,73.2037 76.0008,72.5901 75.9776,72.2429 76.406,71.7103 77.0427,69.939 77.4943,69.3139 78.0268,67.7626 77.4479,67.8204 76.7185,68.4341 75.3757,68.2952 75.0515,68.8161 74.299,68.6424 73.3612,68.052 72.4698,67.8784 72.574,67.2185 72.8867,66.8133 72.4467,66.466 72.1341,66.0376 71.3353,66.1303 69.4483,65.1231 68.9157,65.2388 68.2327,64.359 67.6539,64.1159 67.1793,64.4979 65.8942,64.6137 64.8987,64.1159 64.4354,64.4286 63.8567,64.3822 63.764,65.1925 63.0231,65.1115 62.0623,65.3894 61.194,65.3084 61.0088,64.8221 "
   id="polygon10"
   style="fill:none;stroke:#ffffff;stroke-width:0.2;stroke-linejoin:round;stroke-dasharray:none;stroke-opacity:1"
   name="La Leonera" />
  <polygon
   class="fil3 str1"
   points="80.0758,50.5595 80.0874,51.2308 80.62,51.9023 80.6779,52.4812 81.0252,52.5622 81.2682,52.8979 81.8123,53.1873 82.1018,53.2105 82.3218,53.6157 82.7618,53.3957 83.19,53.4304 83.4795,53.7545 83.6416,54.1598 83.9077,54.1714 84.1741,53.9399 84.4056,54.2408 84.7297,54.2756 84.7876,54.7733 85.2622,55.0859 85.8875,55.109 85.8875,55.3986 85.5748,55.7575 85.598,56.0353 86.119,55.9889 86.5472,56.2205 86.3852,56.7531 86.8136,57.0772 87.242,56.9497 87.1725,57.494 87.5198,58.0381 87.6587,58.4201 87.6356,58.9063 88.1218,59.1842 87.9366,59.6588 88.0408,60.4113 87.9598,60.9092 88.4344,61.0712 88.1681,61.4301 88.3301,61.9047 88.0176,61.9394 87.8902,62.2173 87.9829,62.4951 88.2376,62.5761 88.365,62.9466 88.6543,63.1898 88.9901,62.9235 89.2911,63.016 89.4184,63.2129 89.4068,63.6065 89.8815,64.359 90.2287,65.0189 90.2982,65.7019 90.495,65.8177 90.8654,65.6672 91.3748,65.945 91.8263,66.3618 92.382,66.385 92.8683,67.3227 93.3429,67.1722 93.0882,66.767 93.806,66.2461 94.1302,66.3386 94.0028,66.8133 94.6627,67.6005 95.23,67.3689 95.8204,67.3805 95.7393,67.9595 95.9478,68.3184 96.0171,68.8277 96.2603,68.8624 96.6424,68.5961 96.897,69.0129 97.4643,68.4457 98.1937,68.8277 98.6799,68.6772 98.8883,68.191 99.2935,68.6887 99.7218,68.6077 99.9649,68.8624 101.921,69.1982 102.141,68.9203 101.759,68.5036 101.898,68.0057 103.033,67.0333 103.658,66.2113 103.727,65.5051 103.554,64.359 104.364,64.278 104.827,64.5906 104.7,64.058 104.955,63.9191 105.313,63.7338 105.036,63.3634 104.746,62.6224 103.855,61.7542 103.843,61.0018 104.677,60.2377 104.978,59.543 105.001,59.0683 105.209,58.8253 105.58,58.6516 105.996,58.0728 106.078,57.5982 106.552,57.1466 106.552,56.6489 107.027,56.29 107.189,55.8616 107.571,55.7921 107.617,55.3869 108.092,54.9586 107.733,54.0904 107.814,53.4651 108.138,52.8979 108.011,52.5043 108.208,52.1106 108.208,51.7286 107.872,51.5319 107.652,51.3234 107.71,50.7909 107.918,50.3741 108.532,49.8647 108.37,49.4133 107.918,49.3554 107.745,48.8576 107.409,48.8344 107.027,48.383 106.46,48.5797 106.089,48.6145 105.788,48.3482 105.244,48.3019 104.885,47.9083 104.619,47.9893 104.26,47.5726 104.272,47.2252 104.04,47.0747 103.577,47.1674 103.415,47.0169 103.496,46.658 103.693,46.2876 103.646,45.9287 103.45,45.7319 103.288,45.3383 103.334,44.794 103.577,44.331 103.369,44.1111 103.45,43.7984 103.299,43.2428 103.473,42.9418 103.288,42.664 103.403,42.3051 103.322,42.0272 103.218,41.6336 103.38,41.1706 102.767,40.3717 101.921,39.8854 100.937,38.9015 100.717,38.9825 99.9764,38.2532 99.2472,38.2647 99.0735,38.0564 98.1357,38.149 96.7581,37.547 96.1676,37.6396 95.1142,37.1997 94.709,37.2691 94.5701,36.9565 94.1996,36.5746 94.4427,36.3083 94.3269,36.0072 93.9565,35.8684 93.7482,35.4284 93.6324,34.7685 93.4239,34.2939 91.7916,33.8308 91.1087,33.4487 90.5065,32.8699 90.032,32.5805 87.3924,32.1637 87.2303,32.8237 87.4271,33.0552 87.4503,33.4834 87.705,34.0971 87.7282,35.2779 87.184,35.6715 86.9293,36.563 86.0263,36.945 85.598,36.7482 84.6835,36.8177 84.394,37.4428 83.8846,37.9754 82.9353,37.9985 82.8891,38.2763 82.1481,38.6699 81.7429,38.6352 81.4073,39.3414 80.8978,39.353 80.5273,39.5845 79.277,39.6771 78.513,39.8739 78.0499,39.9202 77.8878,40.3486 77.9805,40.7422 78.2814,40.9391 78.4899,41.6452 78.4551,42.3977 77.992,42.745 77.8878,43.2428 77.9457,43.6596 78.513,44.2037 78.5246,44.9331 78.9298,45.5581 78.8371,47.4336 79.3118,48.1513 79.5202,49.0081 79.497,49.6564 79.8674,49.9458 "
   id="polygon11"
   style="fill:none;stroke:#ffffff;stroke-width:0.2;stroke-linejoin:round;stroke-dasharray:none;stroke-opacity:1"
   name="La Castilla" />
  <polygon
   class="fil4 str1"
   points="71.6132,76.4684 71.2196,76.6653 71.2426,77.9734 71.59,78.5638 71.5205,79.2353 71.81,79.6752 71.7868,80.4508 72.1457,80.914 71.7405,81.8285 71.2196,82.0831 70.6754,82.963 69.8766,82.4883 68.7189,82.5693 68.3948,82.3495 67.2834,82.3842 66.9245,82.6736 65.5932,82.6852 65.0259,82.0138 64.4587,82.0484 63.8914,82.28 62.8842,81.9674 61.9928,82.0831 61.6107,81.9211 61.2172,81.4927 60.6498,81.9558 60.2331,81.7011 59.0407,82.0716 57.3157,81.4696 56.077,81.5159 54.6299,80.856 53.6574,80.9024 52.8123,81.4465 52.1177,81.4465 51.5388,81.7823 50.4622,81.5969 49.3162,82.8009 49.0151,82.7084 48.4016,83.5998 47.7533,84.0049 47.3249,85.2901 46.1672,85.6141 45.3453,86.2509 44.0602,86.9802 44.2107,87.7673 44.1412,89.064 43.5161,90.7079 43.1109,91.3563 42.6478,91.8657 43.3772,92.8265 42.7057,93.4864 42.7174,93.9842 42.4742,94.5399 42.4395,95.605 41.7912,96.207 41.5712,97.6541 41.7564,98.3024 41.1545,99.4368 39.6727,101.046 39.2443,101.046 38.9085,100.803 38.2139,101.463 37.6814,101.509 37.4151,100.93 36.1996,101.312 34.2546,101.44 32.1592,101.428 31.8003,101.104 31.3372,101.035 30.7815,100.189 29.3923,100.247 28.8135,99.7495 28.3736,99.7727 27.9453,99.4832 27.3201,99.981 26.4055,99.8305 25.7919,100.236 24.5185,100.155 23.7544,100.514 22.4346,100.421 22.041,100.977 22.6777,102.366 22.7588,103.535 22.7009,104.288 23.0019,105.086 22.6777,105.746 22.4925,106.395 22.6893,106.997 22.4578,107.425 22.3536,108.166 21.7747,108.999 21.8095,109.671 21.2769,110.921 21.8095,111.407 22.2958,111.72 22.3189,112.137 21.821,112.855 21.2885,113.41 20.7329,113.746 20.7907,114.174 20.5824,114.371 20.6634,115.564 20.0382,116.212 19.633,116.872 19.5982,117.265 19.0889,117.995 19.0773,118.863 18.9037,119.048 18.869,120.136 19.0889,120.646 19.0773,122.544 18.8459,123.795 18.5796,124.918 19.3089,125.138 19.7141,125.485 20.2698,125.439 20.5013,125.207 21.1381,125.381 21.0918,125.821 21.3926,126.006 22.0757,125.994 22.9093,126.261 24.1365,126.122 24.6459,126.365 25.1321,126.863 26.8338,127.673 27.2274,128.113 28.3272,128.668 29.9017,128.657 31.3604,128.865 32.0203,128.368 32.877,128.796 33.7569,129.004 34.3936,129.653 34.7061,129.757 35.2039,129.34 35.6091,129.317 36.35,128.761 36.3732,128.414 36.8941,127.951 37.6235,127.708 38.3876,126.944 39.2095,125.195 39.1863,124.779 39.6958,123.922 40.8534,123.494 41.2008,123.007 41.9648,122.359 42.289,121.201 42.972,120.414 43.4466,119.28 43.5972,118.4 44.4886,117.543 44.4771,117.231 45.0211,116.768 45.1137,115.633 45.7157,114.915 45.8315,113.758 46.1904,113.387 46.3408,112.449 46.6882,112.009 46.7808,110.574 46.3872,109.011 46.3293,108.305 45.9936,107.83 45.9473,107.332 46.2135,107.147 48.3784,107.251 50.1613,107.483 53.6228,108.108 55.0698,108.108 56.8643,107.529 58.5429,107.112 59.77,106.985 60.5688,106.522 62.0043,106.221 62.7569,105.631 62.8611,105.202 64.7943,103.396 65.7785,102.979 67.5034,103.072 68.3484,102.563 69.9693,102.586 70.8144,102.053 71.59,100.097 72.1225,99.2633 72.6203,98.8696 74.7389,98.8696 75.8041,99.5063 76.7185,99.7264 78.1657,99.1243 78.675,99.4022 79.9601,99.4022 80.7936,99.1823 81.2799,99.5526 81.3724,99.9462 82.0439,100.201 82.3566,100.12 82.6227,100.409 83.0163,100.421 83.1089,100.236 83.6184,100.328 83.8384,100.051 84.1625,100.132 84.4287,100.432 84.8802,100.305 85.2044,100.791 85.5633,100.525 85.8295,100.78 85.7021,101.197 86.2348,101.59 86.9525,101.59 87.0683,101.393 87.9713,101.393 88.5848,99.5642 89.1637,99.3096 90.0666,99.8305 90.4024,99.6337 90.6803,99.8652 91.0507,99.5873 91.5139,99.8768 92.0463,99.7958 92.8567,99.4368 93.4124,99.3212 93.9218,99.5758 95.4615,99.5526 95.7741,98.7308 96.1792,98.2676 96.8854,98.013 97.4411,97.9898 97.4758,98.5455 97.9274,98.696 98.3094,98.476 98.02,98.2098 97.9853,97.7698 98.8883,97.6078 98.842,98.4182 99.4902,98.4529 99.5829,97.7236 100.069,97.7466 99.9996,96.9015 98.2167,97.3415 98.7261,91.7151 100.787,89.1567 101.389,87.9064 102.825,88.5546 105.406,88.6126 105.279,86.8992 106.46,86.1699 105.939,85.3711 105.638,81.6549 106.68,81.1107 107.733,79.9993 108.289,79.9762 108.37,79.3163 108.705,78.7143 107.212,77.383 107.154,76.8388 105.8,74.593 105.14,74.1878 104.434,74.3498 104.167,74.1761 101.875,74.0373 100.046,73.5048 98.0316,73.4468 97.5222,72.949 97.0244,72.868 96.0056,73.25 94.9753,72.787 94.3964,72.8333 93.7713,72.6017 93.1809,72.8218 91.9769,72.8218 90.8886,71.1199 90.2982,70.7495 89.5689,70.0665 88.7816,70.6105 88.2606,70.2863 88.4575,69.0939 88.3417,68.9203 88.1565,68.874 87.7514,69.1635 87.404,69.2445 86.9756,68.9666 87.1957,68.1793 85.0424,67.1027 84.3476,67.9363 83.6647,67.9825 83.7804,67.3227 83.6763,66.7554 84.1278,66.0955 83.9194,65.4588 83.5953,65.262 82.125,65.1809 81.3492,64.6369 80.2958,65.262 79.4855,65.3084 78.2351,66.5934 78.0268,67.7626 78.5709,68.7119 79.3812,69.1171 79.3812,69.4528 80.5041,69.6844 80.4347,70.9463 81.1178,71.5714 81.1409,72.2776 80.3653,73.0532 80.4,73.8057 80.099,74.4657 79.1844,74.3614 78.8371,74.8129 78.3277,74.9171 78.3277,75.6812 78.0499,75.9822 76.6143,75.9127 76.2903,76.4221 75.5955,76.3526 75.2714,76.0632 74.5074,76.6421 73.2802,76.7463 72.6435,76.4568 "
   id="polygon12"
   style="fill:none;stroke:#ffffff;stroke-width:0.2;stroke-linejoin:round;stroke-dasharray:none;stroke-opacity:1"
   name="Los Andes" />
  <polygon
   class="fil4 str1"
   points="104.677,60.2377 103.843,61.0018 103.855,61.7542 104.746,62.6224 105.036,63.3634 105.313,63.7338 104.7,64.058 104.827,64.5906 105.753,64.3011 106.529,65.2737 106.784,65.4125 107.525,65.2388 107.756,65.3662 107.606,66.5238 108.752,66.1071 110.187,66.5354 110.907,67.471 111.403,67.0101 111.704,66.3155 112.121,65.7251 112.723,65.343 112.757,64.8685 112.989,64.4632 112.966,63.2014 113.313,62.5298 112.931,62.4141 112.607,62.0899 112.676,61.3375 113.163,60.5966 113.163,58.9873 112.919,57.9454 113.255,57.6097 113.302,57.1582 113.012,56.6026 112.943,56.2089 113.51,55.63 113.371,55.0859 113.475,54.5303 113.961,54.1019 113.961,53.2683 113.44,52.6317 113.255,51.8676 113.429,51.2192 113.417,50.4436 113.221,50.0616 113.406,49.5869 113.95,49.0428 114.158,48.5219 114.668,48.2904 114.818,47.7924 114.598,47.5957 114.563,47.1789 114.401,46.9473 114.529,46.3801 114.158,45.9402 113.591,46.1718 113.429,46.4959 112.908,46.7043 112.665,46.6001 112.468,46.2413 112.433,45.8245 112.225,45.7782 111.947,45.9749 111.623,45.7434 111.6,45.2457 111.808,45.0372 111.785,44.3426 111.936,43.949 111.449,43.7638 111.021,43.8911 110.338,44.5742 110.164,45.5003 109.527,46.3338 109.655,46.6465 109.47,47.0169 109.122,47.3988 109.157,48.0472 108.891,48.3714 108.914,48.8229 108.37,49.4133 108.532,49.8647 107.918,50.3741 107.71,50.7909 107.652,51.3234 107.872,51.5319 108.208,51.7286 108.208,52.1106 108.011,52.5043 108.138,52.8979 107.814,53.4651 107.733,54.0904 108.092,54.9586 107.617,55.3869 107.571,55.7921 107.189,55.8616 107.027,56.29 106.552,56.6489 106.552,57.1466 106.078,57.5982 105.996,58.0728 105.58,58.6516 105.209,58.8253 105.001,59.0683 104.978,59.543 "
   id="polygon13"
   style="fill:none;stroke:#ffffff;stroke-width:0.2;stroke-linejoin:round;stroke-dasharray:none;stroke-opacity:1"
   name="Montebello" />
  <polygon
   class="fil4 str1"
   points="93.9565,35.8684 94.3269,36.0072 94.4427,36.3083 94.1996,36.5746 94.5701,36.9565 94.709,37.2691 95.1142,37.1997 96.1676,37.6396 96.7581,37.547 98.1357,38.149 99.0735,38.0564 99.2472,38.2647 99.9764,38.2532 100.717,38.9825 100.937,38.9015 101.921,39.8854 102.767,40.3717 103.38,41.1706 103.693,41.0779 104.318,40.3948 104.329,40.1171 104.862,39.515 105.209,39.5266 105.522,39.1214 105.51,38.6584 106.217,37.5123 106.668,37.4081 107.062,36.8987 107.907,35.8105 107.86,35.5094 108.057,35.3127 108.242,34.919 108.185,34.3402 108.648,33.8308 108.15,33.9118 107.536,33.9118 106.934,33.8308 106.182,33.2288 105.452,32.9047 104.584,32.9047 103.843,33.1246 103.38,32.6268 102.222,32.8467 101.586,31.527 101.169,31.1681 101.227,30.6819 101.03,30.323 100.104,29.802 99.4439,28.8527 98.7377,28.4476 96.8854,28.7602 95.0563,28.7602 94.4775,28.1813 93.8292,27.9729 92.8567,27.313 92.6367,26.7805 91.7916,26.549 91.1897,25.7502 90.3098,25.264 89.4763,24.4073 88.446,25.5881 87.2535,28.7138 86.7094,29.5358 86.9061,30.1957 86.8136,31.2607 87.184,31.6659 87.3924,32.1637 90.032,32.5805 90.5065,32.8699 91.1087,33.4487 91.7916,33.8308 93.4239,34.2939 93.6324,34.7685 93.7482,35.4284 "
   id="polygon14"
   style="fill:none;stroke:#ffffff;stroke-width:0.2;stroke-linejoin:round;stroke-dasharray:none;stroke-opacity:1"
   name="La Paz" />
  <polygon
   class="fil5 str1"
   points="83.7573,111.732 84.0468,112.125 84.4403,112.102 85.2739,112.681 85.2622,113.225 85.4128,114.082 84.7182,114.962 83.5025,115.494 82.6806,115.459 82.3797,115.297 81.6503,115.494 81.0599,116.003 80.5737,116.003 80.3536,115.807 79.8674,116.281 79.659,117.045 79.6127,118.307 78.8835,118.805 77.8994,119.118 77.5406,119.801 75.3294,120.264 74.4843,121.155 73.5234,121.815 73.5234,122.544 72.6203,124.119 71.5322,124.894 70.6523,125.763 70.1082,126.098 69.5987,126.064 69.0315,126.423 69.182,126.805 69.5756,126.839 71.7058,128.159 72.8172,128.368 73.4423,128.865 74.3915,129.108 74.8777,129.873 75.283,129.873 76.1281,130.498 76.1281,131.204 76.3713,131.563 77.2279,131.771 78.7907,133.496 79.277,133.6 79.8906,134.214 80.2958,135.198 80.3306,135.742 80.62,135.985 80.6663,136.379 81.0021,136.448 81.0368,136.101 81.2451,136.124 81.604,136.529 82.2523,136.483 82.7965,137.096 83.2132,137.235 83.5953,137.12 84.2204,137.756 84.1278,138.185 84.3824,138.509 85.0192,138.486 85.2739,138.312 86.3505,138.358 87.1147,137.803 88.1681,137.814 89.2099,137.27 90.1709,137.12 91.7337,137.178 92.8104,137.467 93.6555,137.328 94.3501,137.108 95.4152,137.12 96.4571,136.83 97.7075,136.958 99.7103,136.9 100.648,136.437 101.771,136.749 102.547,136.344 104.121,136.657 106.02,137.143 107.687,137.687 108.879,138.138 110.083,138.798 111.241,135.719 112.537,133.82 112.329,132.917 114.563,131.331 113.985,130.266 115.408,128.796 113.221,125.879 111.472,123.864 111.067,123.308 110.778,123.262 110.477,124.675 109.84,125.334 109.377,125.531 108.995,125.126 107.733,124.871 107.293,124.292 106.645,124.779 105.36,124.952 105.012,124.732 104.7,124.489 104.688,123.436 103.785,123.285 103.183,122.672 103.415,120.021 103.82,119.685 104.41,117.624 103.751,115.228 103.172,114.857 103.195,113.167 101.898,111.57 103.218,110.203 103.253,107.587 105.429,107.9 105.614,107.668 105.29,107.217 106.483,98.1866 105.545,97.0637 105.047,96.8437 104.48,96.8321 102.35,98.4066 100.555,100.317 100.451,99.2517 100.775,98.5107 100.15,98.5339 100.069,97.7466 99.5829,97.7236 99.4902,98.4529 98.842,98.4182 98.8883,97.6078 97.9853,97.7698 98.02,98.2098 98.3094,98.476 97.9274,98.696 97.4758,98.5455 97.4411,97.9898 96.8854,98.013 96.1792,98.2676 95.7741,98.7308 95.4615,99.5526 93.9218,99.5758 94.0839,99.9694 93.4356,100.722 93.0767,101.463 91.8032,102.922 91.2822,102.956 90.5876,104.264 89.5226,104.774 88.828,105.376 88.6427,105.862 87.2303,106.892 86.64,107.888 86.1653,109.335 85.517,109.868 84.7528,110.041 84.7066,110.342 84.2435,110.817 84.2319,111.164 "
   id="polygon15"
   style="fill:none;stroke:#ffffff;stroke-width:0.2;stroke-linejoin:round;stroke-dasharray:none;stroke-opacity:1"
   name="La Buitrera" />
  <polygon
   class="fil5 str1"
   points="60.3141,48.7534 61.5181,49.7837 61.6223,50.2236 62.9884,50.7561 63.8567,52.2149 67.3413,52.3538 67.9549,52.7474 68.58,52.7591 69.101,53.0716 69.483,53.7545 69.9576,53.9978 70.8606,56.0005 70.7796,56.9151 72.2847,57.5287 72.3773,58.6863 72.2267,58.941 72.2267,60.4808 71.4742,61.1869 71.4395,62.2405 71.0343,62.9466 71.0112,65.3199 71.7405,65.9219 72.1341,66.0376 72.4467,66.466 72.8867,66.8133 72.574,67.2185 72.4698,67.8784 73.3612,68.052 74.299,68.6424 75.0515,68.8161 75.3757,68.2952 76.7185,68.4341 77.4479,67.8204 78.0268,67.7626 78.2351,66.5934 79.4855,65.3084 80.2958,65.262 81.3492,64.6369 82.125,65.1809 83.5953,65.262 83.9194,65.4588 84.1278,66.0955 83.6763,66.7554 83.7804,67.3227 83.6647,67.9825 84.3476,67.9363 85.0424,67.1027 87.1957,68.1793 86.9756,68.9666 87.404,69.2445 87.7514,69.1635 88.1565,68.874 88.3417,68.9203 88.4575,69.0939 88.5385,68.793 89.0016,68.2488 88.5965,67.9132 87.8207,66.4428 87.184,65.8524 86.3389,65.7136 85.8412,64.5906 85.1117,63.595 84.7876,63.0045 84.2435,62.854 83.4215,62.472 84.4752,61.9047 85.1234,62.2983 85.517,62.9003 86.0958,63.4444 86.2464,63.9654 86.6516,64.3127 87.2998,64.5906 87.8902,65.8524 88.9784,66.5123 89.2448,67.589 89.6963,68.0173 91.4675,66.5471 91.8263,66.3618 91.3748,65.945 90.8654,65.6672 90.495,65.8177 90.2982,65.7019 90.2287,65.0189 89.8815,64.359 89.4068,63.6065 89.4184,63.2129 89.2911,63.016 88.9901,62.9235 88.6543,63.1898 88.365,62.9466 88.2376,62.5761 87.9829,62.4951 87.8902,62.2173 88.0176,61.9394 88.3301,61.9047 88.1681,61.4301 88.4344,61.0712 87.9598,60.9092 88.0408,60.4113 87.9366,59.6588 88.1218,59.1842 87.6356,58.9063 87.6587,58.4201 87.5198,58.0381 87.1725,57.494 87.242,56.9497 86.8136,57.0772 86.3852,56.7531 86.5472,56.2205 86.119,55.9889 85.598,56.0353 85.5748,55.7575 85.8875,55.3986 85.8875,55.109 85.2622,55.0859 84.7876,54.7733 84.7297,54.2756 84.4056,54.2408 84.1741,53.9399 83.9077,54.1714 83.6416,54.1598 83.4795,53.7545 83.19,53.4304 82.7618,53.3957 82.3218,53.6157 82.1018,53.2105 81.8123,53.1873 81.2682,52.8979 81.0252,52.5622 80.6779,52.4812 80.62,51.9023 80.0874,51.2308 80.0758,50.5595 79.8674,49.9458 79.497,49.6564 79.5202,49.0081 79.3118,48.1513 78.8371,47.4336 78.9298,45.5581 78.5246,44.9331 78.513,44.2037 77.9457,43.6596 77.8878,43.2428 77.3552,43.1965 77.1585,43.4049 76.2671,43.4743 75.9082,43.1271 74.4959,42.2241 73.7896,42.0967 73.4076,41.7493 72.6666,41.7031 71.8911,41.2631 71.3006,41.1706 70.6407,41.7378 68.7536,41.7493 68.0012,40.9391 68.1749,40.4296 67.5729,40.0128 67.4686,40.256 67.0751,40.2443 66.9477,39.9086 66.5888,39.7119 66.1373,39.7698 65.929,39.4803 65.6511,39.3645 65.6047,38.7046 65.2458,38.4616 65.2458,38.0795 65.4774,37.8712 65.3154,37.6628 64.9449,37.6975 64.7943,37.628 64.7943,37.1418 65.0375,36.806 64.586,36.5746 64.6439,35.6599 64.4354,35.3937 64.366,34.3866 64.2387,33.9582 64.5513,33.4951 64.1924,32.8699 64.366,32.0596 64.4239,31.1797 63.926,31.9554 63.9724,33.3677 63.764,33.8192 63.984,35.3011 64.0766,36.4703 64.2156,39.4919 63.7525,41.541 62.7338,43.3817 62.7106,44.0185 61.8886,44.9678 61.854,45.8014 61.3907,46.3569 60.8583,47.8736 "
   id="polygon16"
   style="fill:none;stroke:#ffffff;stroke-width:0.2;stroke-linejoin:round;stroke-dasharray:none;stroke-opacity:1"
   name="El Saladito" />
  <polygon
   class="fil6 str1"
   points="50.5549,56.2205 50.6127,57.355 49.9528,58.397 50.057,58.9757 49.154,60.1335 48.2857,60.8164 47.7301,60.7702 47.6953,61.2448 46.7577,61.8121 45.9704,62.0204 44.3612,61.9163 43.0299,62.3331 41.9996,62.1941 41.4902,62.5646 40.1241,62.3331 39.1285,62.3331 39.1169,62.0436 38.3412,61.5227 37.0446,61.3375 36.3732,62.2058 35.8638,62.6457 35.5628,63.2361 34.2314,63.977 33.6642,64.5559 32.2633,64.9148 31.2909,65.5862 30.7931,65.5398 30.2143,64.4516 29.5312,64.0349 27.9684,64.6947 25.7456,64.7874 25.491,64.5442 25.6761,64.0233 25.6877,63.3402 24.7962,63.3287 24.1596,63.8496 24.1712,64.2085 23.6966,64.7063 22.4925,65.0883 21.5432,65.7599 21.2538,65.5398 20.9412,65.7714 20.9412,67.0101 20.4781,67.4733 20.455,68.1678 19.7257,68.8856 19.934,70.8536 19.9571,72.5207 19.2974,72.8333 18.3364,73.6899 17.5955,74.1878 16.4262,75.7044 14.655,75.959 13.15,75.6812 12.5133,77.3135 12.2006,77.7534 11.5756,78.066 11.4829,79.2931 11.645,80.9718 12.0502,82.1411 11.7144,82.5231 11.3208,82.4768 10.6147,83.3682 10.6841,85.672 10.4294,86.3666 11.2861,86.8992 11.865,87.4665 11.9113,88.1147 13.2079,91.2173 13.1267,91.6457 13.5088,92.3171 14.2729,92.4329 14.8865,93.7179 15.4076,94.0768 15.778,94.6904 15.72,95.2693 16.4494,96.809 16.4262,97.2952 17.4218,97.6193 18.5796,98.6728 18.5564,99.1707 19.5057,99.9578 20.2003,99.9925 20.6287,100.595 21.2075,100.583 22.041,100.977 21.9484,99.2285 21.1843,97.5731 19.9803,96.1144 19.8878,95.4313 21.4622,93.6601 21.7747,92.6877 21.74,90.5691 21.1265,89.6776 21.1149,88.3926 22.2377,87.3969 22.9093,87.2464 24.3795,84.7343 24.5185,83.7734 25.6415,82.0948 26.9033,81.2728 28.2925,80.8213 29.3345,80.0225 29.404,79.4321 29.8554,78.8532 29.265,75.9937 28.9524,75.6348 29.1492,74.9056 29.9364,73.5511 29.7397,73.2153 29.7049,72.8101 30.029,72.6944 30.4689,72.868 30.7468,73.1112 31.0131,72.9374 31.0479,72.5785 30.7931,72.2429 30.7931,71.7798 31.0594,71.664 31.5688,72.0923 31.8003,71.9303 31.8582,71.3283 32.6222,71.3399 32.8306,71.5946 33.1549,71.8262 35.1807,72.4512 35.9911,72.3354 36.5931,72.1502 36.9751,71.6293 37.774,71.6061 38.2023,70.8536 38.7117,70.2169 38.7001,69.6266 39.0706,69.3718 39.9273,69.858 40.6335,69.6266 41.3396,70.0665 41.7332,70.1706 41.9301,70.7378 42.8447,70.6568 43.3078,70.8073 43.6088,70.3211 44.6159,69.175 45.1716,69.0591 45.4726,69.3023 45.8778,69.0591 45.7853,68.2372 46.4103,67.971 47.0007,67.8204 47.4174,68.0173 48.3552,67.8669 48.7604,68.1099 49.2699,68.0289 49.4435,67.7741 50.277,67.5311 49.8718,67.0681 49.9181,66.767 50.277,66.5934 51.2726,66.5934 51.5736,66.8017 51.5968,67.2069 51.8631,67.2879 52.164,66.929 52.5229,66.9522 52.6965,67.1027 53.4259,67.1491 54.5489,67.7626 55.8224,67.3921 57.2694,67.3574 57.9177,66.686 58.485,66.6397 58.9712,65.8987 59.5385,65.6672 59.6426,65.0999 60.3257,64.741 61.0088,64.8221 61.194,65.3084 62.0623,65.3894 63.0231,65.1115 63.764,65.1925 63.8567,64.3822 64.4354,64.4286 64.8987,64.1159 65.8942,64.6137 67.1793,64.4979 67.6539,64.1159 68.2327,64.359 68.9157,65.2388 69.4483,65.1231 71.3353,66.1303 72.1341,66.0376 71.7405,65.9219 71.0112,65.3199 71.0343,62.9466 71.4395,62.2405 71.4742,61.1869 72.2267,60.4808 72.2267,58.941 72.3773,58.6863 72.2847,57.5287 70.7796,56.9151 70.8606,56.0005 69.9576,53.9978 69.483,53.7545 69.101,53.0716 68.58,52.7591 67.9549,52.7474 67.3413,52.3538 63.8567,52.2149 62.9884,50.7561 61.6223,50.2236 61.5181,49.7837 60.3141,48.7534 59.1101,49.4596 57.1652,50.0501 54.8498,51.7054 54.3405,52.4695 53.4837,52.8401 52.1177,54.2061 51.4926,55.2712 "
   id="polygon17"
   style="fill:none;stroke:#ffffff;stroke-width:0.2;stroke-linejoin:round;stroke-dasharray:none;stroke-opacity:1"
   name="Felidia" />
 </g>
 
 
</svg>
